<svg xmlns="http://www.w3.org/2000/svg" width="337.213" height="466.253" viewBox="0 0 337.213 466.253">
  <path id="alphabet-A" d="M336.777,419.5,217.317,30.083C211.637,12.092,192.237,0,169.046,0,145.2,0,126.22,11.912,120.727,30.231L2.242,416.471l-.176.5A28.4,28.4,0,0,0,.151,426.983c0,23.488,25.113,39.27,48.57,39.27,17.642,0,31.479-9.351,36.172-24.61L106.461,368.6H231.053l21.632,73.248c4.628,15.053,18.242,24.4,35.526,24.4,23.247,0,49.152-16.368,49.152-39.852a24.462,24.462,0,0,0-.58-5.2v-1.71h-.006ZM128.808,290.641,168.884,157.3l39.365,133.345Z" transform="translate(-0.151 0)" fill="#ef6e4b"/>
</svg>
