<svg xmlns="http://www.w3.org/2000/svg" width="292.391" height="472.739" viewBox="0 0 292.391 472.739">
  <path id="alphabet-C" d="M614.241,578.2c-37.029,0-42.9,25.657-43.814,34.06-3.494,27.372-6.913,53.165-55.787,53.165-42.733,0-60.966-19.29-60.966-64.5v-177.4c0-45.211,17.7-64.5,59.2-64.5,37.505,0,55.763,15.745,57.457,49.655.9,16.243,12.948,35.213,43.914,35.213,29.157,0,43.942-15.577,43.942-46.3,0-71.677-60.24-121.738-146.49-121.738-41.609,0-76.857,11.729-101.933,33.921-29.174,25.82-43.968,64.093-43.968,113.75v177.4c0,49.667,14.681,87.923,43.63,113.71,24.944,22.217,60.1,33.959,101.683,33.959,42.518,0,79.17-12.05,105.989-34.847a114.7,114.7,0,0,0,41.089-88.659C658.184,593.976,643.4,578.2,614.241,578.2Z" transform="translate(-365.794 -275.857)" fill="#46bee8"/>
</svg>
