<svg xmlns="http://www.w3.org/2000/svg" width="289.898" height="465.196" viewBox="0 0 289.898 465.196">
  <path id="alphabet-B" d="M444.194,351.758c21.079-21.279,32.692-53.935,32.692-94,0-44.234-14.638-76.652-43.505-96.353-22.587-15.414-52.5-22.593-94.136-22.593H238.737c-23.5,0-41.229,15.716-41.229,36.555V568.038c0,20.17,18.111,35.969,41.229,35.969H352.682c85.617,0,134.724-51.234,134.724-140.565V452.925C487.408,406.249,473.532,373.387,444.194,351.758ZM284.642,314.112v-92.84h52.264c32.629,0,52.85,7.274,52.85,43.5,0,36.892-12.893,49.343-51.1,49.343ZM400.274,450.589v9.934c0,42.207-17.2,61.029-55.772,61.029H284.64V393.066H344.5C384.637,393.064,400.274,409.193,400.274,450.589Z" transform="translate(-197.508 -138.812)" fill="#efd873"/>
</svg>
