<svg id="Layer_1" data-name="Layer 1" xmlns="http://www.w3.org/2000/svg" viewBox="0 0 368 224"><defs><style>.cls-1{fill:#d8d7da;}.cls-2{fill:#c6c5ca;}.cls-3{fill:#3d9ae2;}.cls-4{fill:#ff5023;}</style></defs><title>book</title><path class="cls-1" d="M424,224H136a24.12,24.12,0,0,1-15.84-6v-.08A23.45,23.45,0,0,1,112,200a24,24,0,0,1,24-24H424a23.75,23.75,0,0,0-22.56,16,22.12,22.12,0,0,0-1.44,8A24,24,0,0,0,424,224Z" transform="translate(-72 -144)"/><path class="cls-1" d="M408,336H120a23.8,23.8,0,0,1-15.84-6.08A23.45,23.45,0,0,1,96,312a24,24,0,0,1,24-24H408a23.75,23.75,0,0,0-22.56,16,22.12,22.12,0,0,0-1.44,8A24,24,0,0,0,408,336Z" transform="translate(-72 -144)"/><path class="cls-2" d="M408,288a23.75,23.75,0,0,0-22.56,16H128a24,24,0,0,0-24,24,7.75,7.75,0,0,0,.16,1.92A23.45,23.45,0,0,1,96,312a24,24,0,0,1,24-24Z" transform="translate(-72 -144)"/><path class="cls-2" d="M424,176a23.75,23.75,0,0,0-22.56,16H144a24,24,0,0,0-24,24,7.75,7.75,0,0,0,.16,1.92A23.45,23.45,0,0,1,112,200a24,24,0,0,1,24-24Z" transform="translate(-72 -144)"/><path class="cls-3" d="M424,336v32H128a56,56,0,0,1,0-112H424v32H128a24,24,0,0,0,0,48Z" transform="translate(-72 -144)"/><path class="cls-4" d="M440,224v32H144a56,56,0,0,1,0-112H440v32H144a24,24,0,0,0,0,48Z" transform="translate(-72 -144)"/><path class="cls-4" d="M208.56,293v16l-12-16-12-16-12,16-12,16V229h48v64Z" transform="translate(-72 -144)"/></svg>