<svg id="Layer_1" data-name="Layer 1" xmlns="http://www.w3.org/2000/svg" viewBox="0 0 374.78 294.68"><defs><style>.cls-1{fill:#01483f;}.cls-2{fill:#01644c;}.cls-3{fill:#067254;}.cls-4{fill:#002822;}.cls-5{fill:#eaf7f9;}.cls-6{fill:#c9fce9;}.cls-7{fill:#847d3d;}.cls-8{fill:#fd9c28;}.cls-9{fill:#e65924;}.cls-10{fill:#679b40;}.cls-11{fill:#4ac195;}</style></defs><title>desk</title><path class="cls-1" d="M285.05,413.09h.21a2.24,2.24,0,0,0,2.24-2.29l-3.39-147.18-10-1.17,8.53,148.36A2.43,2.43,0,0,0,285.05,413.09Z" transform="translate(-75.22 -121.49)"/><path class="cls-1" d="M343.34,413.09h.22a2.24,2.24,0,0,0,2.24-2.29l-3.4-147.18-10-1.17,8.53,148.36A2.41,2.41,0,0,0,343.34,413.09Z" transform="translate(-75.22 -121.49)"/><path class="cls-1" d="M182.49,413.09h-.21A2.24,2.24,0,0,1,180,410.8l3.39-147.18,10-1.17L184.9,410.81A2.41,2.41,0,0,1,182.49,413.09Z" transform="translate(-75.22 -121.49)"/><path class="cls-2" d="M350,254.49V153.63a32.14,32.14,0,0,0-32.13-32.14H245.17A32.13,32.13,0,0,0,213,153.63V258.34Z" transform="translate(-75.22 -121.49)"/><path class="cls-1" d="M215.94,254.49H350a0,0,0,0,1,0,0v15.92a0,0,0,0,1,0,0H200a0,0,0,0,1,0,0v0A15.92,15.92,0,0,1,215.94,254.49Z" transform="translate(474.77 403.4) rotate(-180)"/><rect class="cls-3" x="176.07" y="254.49" width="120.42" height="15.92" rx="7.96" transform="translate(397.33 403.4) rotate(180)"/><path class="cls-4" d="M420,416.17h.28a3,3,0,0,0,3-3.2l-4.49-206.09-13.23-1.63L416.76,413A3.29,3.29,0,0,0,420,416.17Z" transform="translate(-75.22 -121.49)"/><path class="cls-4" d="M97.33,416.17H97a3,3,0,0,1-3-3.2l4.49-206.09,13.23-1.63L100.52,413A3.29,3.29,0,0,1,97.33,416.17Z" transform="translate(-75.22 -121.49)"/><rect class="cls-4" y="74.78" width="374.78" height="14.4" rx="7.2"/><path class="cls-5" d="M33,54.17H64.91a5.74,5.74,0,0,1,5.74,5.74v0a5.87,5.87,0,0,1-5.87,5.87H33a0,0,0,0,1,0,0V54.17A0,0,0,0,1,33,54.17Z"/><path class="cls-1" d="M173.92,180.44v1.74a5,5,0,0,1-.69,2.56,5.08,5.08,0,0,1-4.39,2.53h-61.6a.74.74,0,0,1-.73-.74v-.26a.74.74,0,0,1,.73-.74h37.55a4.69,4.69,0,0,0,1.08-3V180.3a5.08,5.08,0,0,0-.15-1.18,4.66,4.66,0,0,0-.87-1.72H107.24a.74.74,0,0,1-.73-.74v-.26a.74.74,0,0,1,.73-.74h61.91a4.76,4.76,0,0,1,4.77,4.78Z" transform="translate(-75.22 -121.49)"/><path class="cls-3" d="M173.74,179.12h-28a4.66,4.66,0,0,0-.87-1.72H107.24a.74.74,0,0,1-.73-.74v-.26a.74.74,0,0,1,.73-.74h61.91A4.77,4.77,0,0,1,173.74,179.12Z" transform="translate(-75.22 -121.49)"/><polygon class="cls-6" points="33.03 59.97 37.59 60.17 33.03 60.28 33.03 59.97"/><polygon class="cls-6" points="33.03 61.79 43.88 61.99 33.03 62.11 33.03 61.79"/><path class="cls-7" d="M116.09,196.27h35v-9H115.81a4.38,4.38,0,0,0-4.38,4.38h0A4.66,4.66,0,0,0,116.09,196.27Z" transform="translate(-75.22 -121.49)"/><path class="cls-5" d="M149.09,196.27h39.8v-9H149a4.46,4.46,0,0,0-4.46,4.47h0A4.56,4.56,0,0,0,149.09,196.27Z" transform="translate(-75.22 -121.49)"/><path class="cls-7" d="M141.87,196.27h48.41a.67.67,0,0,0,.67-.67h0a.68.68,0,0,0-.67-.68H141.87a.68.68,0,0,0-.68.68h0A.67.67,0,0,0,141.87,196.27Z" transform="translate(-75.22 -121.49)"/><path class="cls-7" d="M141.87,188.59h48.41a.67.67,0,0,0,.67-.67h0a.68.68,0,0,0-.67-.68H141.87a.68.68,0,0,0-.68.68h0A.67.67,0,0,0,141.87,188.59Z" transform="translate(-75.22 -121.49)"/><polygon class="cls-6" points="113.67 70.27 108.3 70.42 113.67 70.51 113.67 70.27"/><polygon class="cls-6" points="113.67 68.19 100.88 68.34 113.67 68.43 113.67 68.19"/><path class="cls-8" d="M176.23,189.8a2.11,2.11,0,0,1,.73,1,2,2,0,0,1,.06.35c0,.85,0,2.77,0,2.77l1.62-1,1.61,1v-2.6a2,2,0,0,0-.4-1.28.6.6,0,0,0-.44-.27Z" transform="translate(-75.22 -121.49)"/><path class="cls-9" d="M176.23,189.8a2.11,2.11,0,0,1,.73,1l3.24,0s-.12-.92-.79-1.07Z" transform="translate(-75.22 -121.49)"/><path class="cls-8" d="M82.51,45.49H99.77a4.2,4.2,0,0,1,4.2,4.2v0a4.47,4.47,0,0,1-4.47,4.47h-17a0,0,0,0,1,0,0V45.49a0,0,0,0,1,0,0Z"/><path class="cls-5" d="M162.66,175.66H104V167h58.78a4.29,4.29,0,0,1,4.29,4.29h0A4.38,4.38,0,0,1,162.66,175.66Z" transform="translate(-75.22 -121.49)"/><path class="cls-8" d="M171.14,175.66H101.7a.65.65,0,0,1-.65-.65h0a.65.65,0,0,1,.65-.65h69.44a.65.65,0,0,1,.65.65h0A.65.65,0,0,1,171.14,175.66Z" transform="translate(-75.22 -121.49)"/><path class="cls-8" d="M171.14,168.28H101.7a.65.65,0,0,1-.65-.65h0a.65.65,0,0,1,.65-.65h69.44a.65.65,0,0,1,.65.65h0A.65.65,0,0,1,171.14,168.28Z" transform="translate(-75.22 -121.49)"/><rect class="cls-10" x="340.07" y="149" width="2.91" height="34.27" transform="translate(-97.24 -65.24) rotate(-9.12)"/><polygon class="cls-11" points="262.63 21.77 262.15 27.96 265.02 27.5 262.63 21.77"/><rect class="cls-10" x="365.33" y="151.82" width="2.91" height="34.27" transform="translate(-38.17 -185.67) rotate(10.53)"/><polygon class="cls-11" points="295.8 24.69 293.26 30.35 296.12 30.88 295.8 24.69"/><rect class="cls-10" x="361.71" y="141.94" width="2.91" height="34.27" transform="translate(-40.08 -185.12) rotate(10.52)"/><polygon class="cls-11" points="292.17 14.8 289.64 20.47 292.5 21 292.17 14.8"/><rect class="cls-9" x="272.92" y="41.78" width="22.9" height="33"/><rect class="cls-8" x="261.47" y="41.78" width="22.9" height="33"/></svg>