<svg id="Layer_1" data-name="Layer 1" xmlns="http://www.w3.org/2000/svg" viewBox="0 0 498.02 498"><defs><style>.cls-1{fill:#ffc987;}.cls-2{fill:#159e97;}.cls-3{fill:#008079;}.cls-4{fill:#7cdbd6;}.cls-5{fill:#ebd9ea;}.cls-6{fill:#fff;}.cls-7{fill:#c1b7d3;}.cls-8{fill:#6c53a2;}.cls-9{fill:#9175a7;}.cls-10{fill:#f39e22;}.cls-11{fill:#c68132;}.cls-12{fill:#f9c744;}.cls-13{fill:#ee6781;}.cls-14{fill:#f0a6b3;}.cls-15{fill:#d65171;}.cls-16{fill:#f5b890;}.cls-17{fill:#fbd9a3;}.cls-18{fill:#2e3140;}.cls-19{fill:#334353;}.cls-20{fill:#fe3745;}.cls-21{fill:#ff5460;}.cls-22{fill:#ea2a3d;}</style></defs><title>english</title><path id="Path_96" data-name="Path 96" class="cls-1" d="M505,256c0,137.53-111.49,249-249,249A249,249,0,0,1,85.58,437.55q-4.55-4.28-8.87-8.75-7.56-7.86-14.44-16.36c-86.41-107-69.69-263.85,37.34-350.27a249.24,249.24,0,0,1,64.45-37.65h0c1.58-.62,3.15-1.24,4.76-1.82a250,250,0,0,1,174.37,0c1.59.59,3.17,1.19,4.74,1.82h0A249.08,249.08,0,0,1,505,256Z" transform="translate(-6.99 -7)"/><g id="Book"><path id="Path_97" data-name="Path 97" class="cls-2" d="M229.73,440.33c0-14.38-11.66-18.51-26-18.51s-26,4.13-26,18.51C179,474.87,228.36,474.86,229.73,440.33Z" transform="translate(-6.99 -7)"/><path id="Path_98" data-name="Path 98" class="cls-3" d="M229.73,431.13c0-14.38-11.66-18.51-26-18.51s-26,4.13-26,18.51C179,465.67,228.36,465.66,229.73,431.13Z" transform="translate(-6.99 -7)"/><path id="Path_99" data-name="Path 99" class="cls-2" d="M347.39,250.36v170a20,20,0,0,1-19.94,19.95H82.33A238.86,238.86,0,0,1,60,416.26V250.36a19.91,19.91,0,0,1,19.87-20H327.45a20,20,0,0,1,19.94,20Z" transform="translate(-6.99 -7)"/><path id="Path_100" data-name="Path 100" class="cls-3" d="M77.53,250.36v170A19.91,19.91,0,0,1,73.83,432Q66.57,424.41,60,416.26V250.36a20,20,0,0,1,8.77-16.54A20,20,0,0,1,77.53,250.36Z" transform="translate(-6.99 -7)"/><path id="Path_101" data-name="Path 101" class="cls-4" d="M347.4,250.36v170A19.86,19.86,0,0,1,339.9,436a19.85,19.85,0,0,1-7.51-15.58v-170a19.85,19.85,0,0,1,7.51-15.58A19.84,19.84,0,0,1,347.4,250.36Z" transform="translate(-6.99 -7)"/><path id="Path_102" data-name="Path 102" class="cls-3" d="M303.69,427.31h-200a16.82,16.82,0,0,1-16.82-16.83V260.26a16.82,16.82,0,0,1,16.82-16.81h200a16.82,16.82,0,0,1,16.82,16.82h0V410.5A16.83,16.83,0,0,1,303.69,427.31Z" transform="translate(-6.99 -7)"/><path id="Path_103" data-name="Path 103" class="cls-5" d="M320.52,247.24V397.47a16.83,16.83,0,0,1-16.83,16.81h-200a16.83,16.83,0,0,1-16.83-16.83V247.23a16.84,16.84,0,0,1,16.83-16.84h200a16.83,16.83,0,0,1,16.83,16.83Z" transform="translate(-6.99 -7)"/><path id="Path_104" data-name="Path 104" class="cls-6" d="M320.52,247.24V397.47a16.82,16.82,0,0,1-16.83,16.82h-100V230.41h100a16.83,16.83,0,0,1,16.83,16.83Z" transform="translate(-6.99 -7)"/><path id="Path_105" data-name="Path 105" class="cls-7" d="M317.22,407.48a16.8,16.8,0,0,1-13.53,6.81h-200a16.81,16.81,0,0,1-13.53-6.81,16.81,16.81,0,0,1,13.53-6.84h200A16.81,16.81,0,0,1,317.22,407.48Z" transform="translate(-6.99 -7)"/><g id="Group_351" data-name="Group 351"><path id="Path_106" data-name="Path 106" class="cls-8" d="M203.7,278.23H127.16a6.83,6.83,0,0,1,0-13.64H203.7Z" transform="translate(-6.99 -7)"/><path id="Path_107" data-name="Path 107" class="cls-8" d="M203.7,319.84H127.16a6.83,6.83,0,0,1,0-13.64H203.7Z" transform="translate(-6.99 -7)"/><path id="Path_108" data-name="Path 108" class="cls-8" d="M203.7,361.47H127.16a6.84,6.84,0,0,1,0-13.65H203.7Z" transform="translate(-6.99 -7)"/></g><path id="Path_109" data-name="Path 109" class="cls-9" d="M203.68,347.82h76.53a6.84,6.84,0,0,1,.86,13.65H203.68Z" transform="translate(-6.99 -7)"/><path id="Path_110" data-name="Path 110" class="cls-9" d="M203.68,306.21h76.53a6.83,6.83,0,1,1,.86,13.64,6.17,6.17,0,0,1-.86,0H203.68Z" transform="translate(-6.99 -7)"/><path id="Path_111" data-name="Path 111" class="cls-9" d="M203.68,264.59h76.53a6.83,6.83,0,1,1,.86,13.64,6.17,6.17,0,0,1-.86,0H203.68Z" transform="translate(-6.99 -7)"/></g><g id="Pencil"><g id="Group_352" data-name="Group 352"><path id="Path_112" data-name="Path 112" class="cls-10" d="M395.63,198.49h40.14v153H395.63Z" transform="translate(-6.99 -7)"/><path id="Path_113" data-name="Path 113" class="cls-11" d="M407.3,210.16V339.84a11.67,11.67,0,0,1-11.67,11.67v-153a11.67,11.67,0,0,1,11.67,11.67Z" transform="translate(-6.99 -7)"/><path id="Path_114" data-name="Path 114" class="cls-12" d="M435.77,198.49v153a11.68,11.68,0,0,1-11.68-11.68V210.16a11.67,11.67,0,0,1,11.68-11.67Z" transform="translate(-6.99 -7)"/></g><g id="Group_353" data-name="Group 353"><path id="Path_115" data-name="Path 115" class="cls-5" d="M446.39,360.82a9.29,9.29,0,0,1-9.29,9.29H394.31a9.3,9.3,0,1,1,0-18.59H437.1A9.29,9.29,0,0,1,446.39,360.82Z" transform="translate(-6.99 -7)"/><path id="Path_116" data-name="Path 116" class="cls-6" d="M446.39,360.82h-27a9.3,9.3,0,0,1-9.3-9.3h27a9.29,9.29,0,0,1,9.29,9.3Z" transform="translate(-6.99 -7)"/><path id="Path_117" data-name="Path 117" class="cls-7" d="M435.05,370.11H394.3a9.3,9.3,0,0,1-8.57-5.71h40.76A9.3,9.3,0,0,1,435.05,370.11Z" transform="translate(-6.99 -7)"/></g><g id="Group_354" data-name="Group 354"><path id="Path_118" data-name="Path 118" class="cls-13" d="M435.76,370.11v13.76a20.07,20.07,0,0,1-40.14,0V370.11Z" transform="translate(-6.99 -7)"/><path id="Path_119" data-name="Path 119" class="cls-14" d="M435.77,370.11v13.76a20,20,0,0,1-7,15.22,20,20,0,0,1-7-15.22V370.11Z" transform="translate(-6.99 -7)"/><path id="Path_120" data-name="Path 120" class="cls-15" d="M407.89,370.11v13.76a19.93,19.93,0,0,1-6.13,14.42,19.88,19.88,0,0,1-6.14-14.42V370.11Z" transform="translate(-6.99 -7)"/></g><path id="Path_121" data-name="Path 121" class="cls-16" d="M435.76,198.49H395.64l16.78-41.88H419C421.35,162.51,433.7,193.33,435.76,198.49Z" transform="translate(-6.99 -7)"/><path id="Path_122" data-name="Path 122" class="cls-17" d="M432.59,190.55H412.27a4.87,4.87,0,0,1-4.52-6.68l10.92-27.26H419Z" transform="translate(-6.99 -7)"/><g id="Group_355" data-name="Group 355"><path id="Path_123" data-name="Path 123" class="cls-18" d="M420,138.56v19.8a4.26,4.26,0,0,1-8.52,0v-19.8a4.26,4.26,0,0,1,8.52,0Z" transform="translate(-6.99 -7)"/><path id="Path_124" data-name="Path 124" class="cls-19" d="M420,138.57v12.12a4.28,4.28,0,0,1-4.89-3.55,4.89,4.89,0,0,1-.05-.66V134.37a4.27,4.27,0,0,1,4.89,3.54A3.67,3.67,0,0,1,420,138.57Z" transform="translate(-6.99 -7)"/></g></g><g id="Speech-bubble"><path id="Path_125" data-name="Path 125" class="cls-20" d="M214.81,195.48a10.84,10.84,0,0,0,9.11-4.92L259,136.94A10.88,10.88,0,1,0,240.8,125h0l-35.09,53.62a10.92,10.92,0,0,0,9.1,16.83Z" transform="translate(-6.99 -7)"/><path id="Path_126" data-name="Path 126" class="cls-20" d="M350,45.07V113a41.5,41.5,0,0,1-41.47,41.48H203.47A41.5,41.5,0,0,1,162,113V45.07a41.29,41.29,0,0,1,5.86-21.28h0C220.52,2.18,286.49,1.5,339.58,22.05c1.52.57,3.06,1.14,4.55,1.75A41.33,41.33,0,0,1,350,45.08Z" transform="translate(-6.99 -7)"/><path id="Path_127" data-name="Path 127" class="cls-21" d="M350,45.07V113a41.28,41.28,0,0,1-8.7,25.42A41.33,41.33,0,0,1,332.6,113V45.07a41.24,41.24,0,0,1,7-23c1.53.57,3.06,1.14,4.55,1.75A41.3,41.3,0,0,1,350,45.07Z" transform="translate(-6.99 -7)"/><path id="Path_128" data-name="Path 128" class="cls-22" d="M179.41,45.07V113a41.35,41.35,0,0,1-8.71,25.42A41.33,41.33,0,0,1,162,113V45.07a41.3,41.3,0,0,1,5.87-21.28h0c1.51-.59,3-1.19,4.55-1.74a41.15,41.15,0,0,1,7,23Z" transform="translate(-6.99 -7)"/></g><g id="Group_356" data-name="Group 356"><path id="Path_129" data-name="Path 129" class="cls-6" d="M262.58,106.53a5.61,5.61,0,0,1-6.1,5.08,5.47,5.47,0,0,1-2.35-.76,5.22,5.22,0,0,1-2-2.46L246.52,96H213.83l-5.57,12.44a5.16,5.16,0,0,1-4.92,3.25,5.33,5.33,0,0,1-5.11-7.52l25.62-55a7,7,0,0,1,12.44,0L262,104.12A5.76,5.76,0,0,1,262.58,106.53ZM217.92,86.66h24.51L230.18,59.09Z" transform="translate(-6.99 -7)"/><path id="Path_130" data-name="Path 130" class="cls-6" d="M304.31,69.45A19.66,19.66,0,0,1,308.9,83.7v22.65a5.23,5.23,0,0,1-1.49,4c-3.26,3-9.82,1.14-9.56-4v-2c-4.45,10.58-21.26,9.73-26.92.74a13.39,13.39,0,0,1,.42-15.13c5.49-5.69,17-5.35,26.5-5.48.28-6.46-1-10.94-8.26-10.86a33.91,33.91,0,0,0-12.07,3.07,9.38,9.38,0,0,1-3.52,1.2c-3.52.13-4.8-4.56-3-7.1a19.37,19.37,0,0,1,10.4-5c7.41-1.85,18.36-1.48,22.93,3.67Zm-9.38,31.1a11.25,11.25,0,0,0,2.92-8v-2a76.45,76.45,0,0,0-11.32.55,9.52,9.52,0,0,0-4.92,2,6.25,6.25,0,0,0,.59,8.68A9.54,9.54,0,0,0,294.93,100.55Z" transform="translate(-6.99 -7)"/></g></svg>