<svg id="Layer_1" data-name="Layer 1" xmlns="http://www.w3.org/2000/svg" viewBox="0 0 68.82 68.36"><defs><style>.cls-1{fill:#d84774;}.cls-2{fill:#f9fbfc;}.cls-3{fill:#f24c88;}</style></defs><title>note-book</title><polygon class="cls-1" points="65.95 16.8 68.82 22.18 38.24 68.36 35.37 62.98 65.95 16.8"/><polygon class="cls-2" points="35.37 62.98 38.24 68.36 2.87 51.56 0 46.18 35.37 62.98"/><polygon class="cls-3" points="0 46.18 30.58 0 65.95 16.8 35.37 62.98 0 46.18"/><polygon class="cls-1" points="27.29 16.55 51.23 27.66 55.6 20.37 31.66 9.27 27.29 16.55"/><rect class="cls-1" x="226.85" y="182.24" width="0.71" height="26.47" transform="translate(-246.09 160.23) rotate(-64.53)"/><rect class="cls-1" x="224.45" y="186.23" width="0.71" height="26.47" transform="translate(-251.03 160.39) rotate(-64.54)"/><rect class="cls-1" x="222.06" y="190.21" width="0.71" height="26.47" transform="translate(-256.02 160.45) rotate(-64.53)"/></svg>