<svg id="Layer_1" data-name="Layer 1" xmlns="http://www.w3.org/2000/svg" viewBox="0 0 354.3 101.73"><defs><style>.cls-1{fill:#f9fbfc;}.cls-2{fill:#7bf7db;}.cls-3{fill:#47d8c7;}.cls-4{fill:#a5b7c6;}.cls-5{fill:#c0d2dd;}.cls-6{fill:#2db398;}.cls-7{fill:#52d8c8;}.cls-8{fill:#f9f8f7;}</style></defs><title>open-book</title><path class="cls-1" d="M125,213.87a144.2,144.2,0,0,0-11.33,50.23H258.91A23.94,23.94,0,0,0,282.85,288V258.55C223.71,222.76,170.28,213.87,125,213.87" transform="translate(-105.7 -191.41)"/><path class="cls-1" d="M440.7,213.87A144.34,144.34,0,0,1,452,264.1H306.8A23.94,23.94,0,0,1,282.85,288V258.55C342,222.76,395.42,213.87,440.7,213.87" transform="translate(-105.7 -191.41)"/><path class="cls-2" d="M282.85,267.54c-8.87,0-16.93,1.38-22.88,3.63a24,24,0,0,0,45.76,0c-6-2.25-14-3.63-22.88-3.63" transform="translate(-105.7 -191.41)"/><path class="cls-3" d="M282.85,269.73c-8.87,0-16.93,1.38-22.88,3.63a23.95,23.95,0,0,0,45.76,0c-6-2.25-14-3.63-22.88-3.63" transform="translate(-105.7 -191.41)"/><path class="cls-4" d="M113.73,262.52l-.06,1.4.06-1.4m0-.12v0" transform="translate(-105.7 -191.41)"/><path class="cls-5" d="M263.46,256.64H114.14q-.27,2.83-.41,5.76v.12l-.06,1.4v.18H258.91c0,.27,0,.53,0,.79h.76a23.28,23.28,0,0,0,1.81,5.74,55.94,55.94,0,0,1,8.25-2,15.12,15.12,0,0,1-2.17-7.83,4.12,4.12,0,0,0-4.12-4.13" transform="translate(-105.7 -191.41)"/><path class="cls-5" d="M451.57,256.64H302.24a4.13,4.13,0,0,0-4.12,4.13A15.12,15.12,0,0,1,296,268.6a55.94,55.94,0,0,1,8.25,2,23.28,23.28,0,0,0,1.81-5.74h.77c0-.26,0-.52,0-.79H452q-.14-3.8-.47-7.46" transform="translate(-105.7 -191.41)"/><path class="cls-3" d="M269.75,268.6a55.94,55.94,0,0,0-8.25,2c.3.64.62,1.27,1,1.88a58.94,58.94,0,0,1,8.68-1.94,15.54,15.54,0,0,1-1.4-2m26.2,0a13.76,13.76,0,0,1-1.4,2,58.65,58.65,0,0,1,8.68,1.94c.35-.61.68-1.24,1-1.88a55.94,55.94,0,0,0-8.25-2" transform="translate(-105.7 -191.41)"/><path class="cls-6" d="M271.15,270.57a58.94,58.94,0,0,0-8.68,1.94,23.52,23.52,0,0,0,40.76,0,58.65,58.65,0,0,0-8.68-1.94,15.25,15.25,0,0,1-23.4,0" transform="translate(-105.7 -191.41)"/><path class="cls-1" d="M284.1,259.7l-2.5-2.3c.47-.51,11.81-12.67,35.78-27,21.83-13.06,58.61-30.34,110.37-38.95a1.7,1.7,0,1,1,.56,3.35C329.8,211.17,284.55,259.22,284.1,259.7Z" transform="translate(-105.7 -191.41)"/><path class="cls-1" d="M284.07,262l-2.43-2.37c.43-.45,10.85-11,35-23.34,21.95-11.26,59.85-26.14,118.66-33.85a1.58,1.58,0,0,1,1.77,1.37l0,.24a1.57,1.57,0,0,1-1.36,1.76C326,220.1,284.48,261.59,284.07,262Z" transform="translate(-105.7 -191.41)"/><path class="cls-1" d="M281.6,259.7c-.11-.12-11.56-12.39-35.17-26.49-21.55-12.87-57.89-29.91-109-38.42a1.7,1.7,0,1,1,.56-3.35c51.76,8.61,88.55,25.89,110.37,38.95,24,14.34,35.31,26.5,35.78,27Z" transform="translate(-105.7 -191.41)"/><path class="cls-1" d="M281.64,262c-.11-.11-10.59-10.68-34.28-22.8-21.67-11.08-59.07-25.73-114.63-32.93a1.7,1.7,0,1,1,.44-3.37c56.16,7.28,94,22.14,115.93,33.39,24.11,12.36,34.53,22.89,35,23.34Z" transform="translate(-105.7 -191.41)"/><path class="cls-7" d="M282.85,293.14a29.08,29.08,0,0,1-28.59-23.95H108.87A3.17,3.17,0,0,1,105.7,266v-3.86a3.17,3.17,0,0,1,3.17-3.17H259a5.08,5.08,0,0,1,5,5.15,18.85,18.85,0,0,0,37.7,0,5.08,5.08,0,0,1,5-5.15H456.83a3.17,3.17,0,0,1,3.17,3.17V266a3.17,3.17,0,0,1-3.17,3.16H311.44A29.07,29.07,0,0,1,282.85,293.14Z" transform="translate(-105.7 -191.41)"/><path class="cls-4" d="M448.06,249.45c-1.14-.06-2.82-.19-4.95-.29-4.26-.2-10.36-.51-17.68-.71-3.65-.09-7.62-.21-11.81-.25s-8.62-.13-13.19-.09-9.31,0-14.11.11-9.69.21-14.57.35-9.76.42-14.56.63c-2.4.09-4.78.27-7.13.42l-7,.47c-4.56.34-9,.77-13.15,1.14s-8.12.92-11.75,1.35-7,1-9.9,1.45-5.49.92-7.59,1.32-3.75.73-4.87,1l-1.72.34,1.75-.2c1.13-.14,2.8-.32,4.91-.6s4.68-.63,7.64-.87l4.71-.45c1.66-.14,3.4-.38,5.22-.49l11.76-.9,13.14-.8,14.06-.68c4.79-.17,9.66-.43,14.53-.54s9.73-.34,14.53-.43l7.12-.19,7-.15,25-.44,24.38-.33ZM302.68,250l6.79-2.44c2.66-.83,5.67-1.76,8.92-2.83s6.83-2.08,10.6-3.17l5.8-1.68,6.11-1.58,6.31-1.64,6.5-1.51c2.19-.51,4.39-1.05,6.61-1.54l6.7-1.39c4.46-1,9-1.78,13.37-2.62s8.79-1.54,13-2.27l6.24-1c2-.32,4-.64,6-.89,3.89-.54,7.56-1.07,11-1.49s6.52-.79,9.29-1.14,5.19-.57,7.18-.75l4.63-.45,1.64-.14h-1.64c-1.08,0-2.65,0-4.66.09s-4.44.18-7.23.31-5.94.32-9.36.64l-5.35.45-5.71.6c-3.93.39-8,1-12.31,1.52l-6.48,1c-2.19.33-4.41.65-6.63,1.08-4.44.82-9,1.57-13.45,2.55l-6.73,1.44c-2.23.5-4.44,1.06-6.64,1.58s-4.37,1.06-6.52,1.61l-6.31,1.78c-2.07.59-4.11,1.13-6.1,1.73l-5.77,1.87L323,241.56c-1.77.56-3.43,1.25-5.05,1.83-3.22,1.19-6.17,2.32-8.78,3.32l-6.64,2.87c-1.85.79-3.28,1.45-4.27,1.88l-1.5.67,1.56-.54C299.3,251.23,300.8,250.73,302.68,250Zm-.39,1.39,1.87-.53,2-.5c2.8-.68,5.95-1.46,9.38-2.35l11.16-2.49c4-.85,8.18-1.62,12.51-2.54s8.85-1.65,13.42-2.5l13.91-2.29c4.66-.72,9.32-1.52,13.93-2.16s9.12-1.33,13.52-1.89l12.66-1.68c4-.54,7.84-1,11.36-1.4l9.61-1.12,7.41-.82,6.47-.7-1.7.09c-1.11.06-2.73.13-4.79.28-4.13.28-10,.67-17.1,1.32-3.53.35-7.36.68-11.4,1.13s-8.31.86-12.71,1.44-8.94,1.15-13.56,1.78-9.29,1.37-14,2.05S357,238.16,352.38,239s-9.08,1.72-13.43,2.61-8.54,1.83-12.49,2.78l-11.12,2.78c-3.43,1-6.55,1.86-9.32,2.66l-2,.59-1.85.6-3.26,1.08-6.16,2.07,6.26-1.76Zm-1,1.92,4.11-.87c2.94-.61,6.24-1.39,9.89-2l5.68-1c1-.17,2-.36,3-.52l3.1-.44c4.2-.59,8.61-1.29,13.2-1.82s9.32-1.17,14.15-1.63l7.29-.76,7.35-.65c4.91-.48,9.82-.85,14.66-1.23s9.6-.67,14.21-1l13.3-.81,11.93-.61,10.08-.47,7.78-.31,6.77-.23-6.78.08c-4.31.07-10.48.19-17.87.45s-16,.62-25.25,1.16c-4.62.31-9.39.56-14.23.94s-9.76.72-14.67,1.17l-7.36.68-7.3.79c-4.83.48-9.57,1.1-14.16,1.69s-9,1.3-13.19,1.94l-3.1.48c-1,.16-2,.37-3,.55L315.21,250c-3.65.62-6.94,1.48-9.87,2.15l-4.1,1c-1.25.33-2.39.7-3.43,1L291.3,256l6.54-1.77C298.89,254,300,253.66,301.3,253.35Zm.13.58,4.15-.67c3-.47,6.29-1.07,10-1.5s7.62-1.06,11.84-1.45,8.64-.94,13.25-1.31l7-.61c2.37-.21,4.77-.35,7.19-.54l7.3-.51,7.36-.43c4.92-.32,9.84-.56,14.68-.8s9.61-.41,14.23-.61L411.7,245l11.92-.34c7.39-.17,13.55-.34,17.86-.4l6.77-.09-6.77-.05c-4.31,0-10.48,0-17.87.07s-16,.25-25.25.55c-4.62.19-9.39.31-14.24.56s-9.77.44-14.69.74l-7.37.46-7.3.54c-2.42.2-4.82.34-7.19.57l-7,.64c-4.61.37-9,.94-13.25,1.42s-8.17,1.09-11.84,1.6-7,1.13-10,1.67l-4.14.76c-1.27.25-2.43.55-3.48.79L291.3,256l6.63-1.4C299,254.43,300.15,254.15,301.43,253.93Z" transform="translate(-105.7 -191.41)"/><path class="cls-4" d="M115.89,249.57l24.39.33,25,.44,7,.15,7.12.19c4.8.09,9.67.27,14.54.43s9.73.37,14.52.54l14.06.68,13.14.8,11.76.9c1.83.11,3.56.35,5.22.49l4.71.45c3,.24,5.52.59,7.64.87s3.78.46,4.92.6l1.74.2-1.72-.34c-1.12-.22-2.76-.56-4.87-1s-4.64-.91-7.59-1.32-6.26-1-9.89-1.45-7.58-.92-11.76-1.35-8.58-.8-13.15-1.14l-7-.47c-2.35-.15-4.73-.33-7.13-.42-4.8-.21-9.68-.5-14.56-.63s-9.76-.29-14.56-.35-9.54-.1-14.11-.11-9,0-13.2.09-8.15.16-11.81.25c-7.32.2-13.41.51-17.68.71-2.13.1-3.81.23-5,.29Zm151.52,2,1.56.54-1.5-.67c-1-.43-2.42-1.09-4.26-1.88l-6.65-2.87c-2.61-1-5.55-2.13-8.78-3.32-1.62-.58-3.28-1.27-5.05-1.83l-5.46-1.78-5.78-1.87c-2-.6-4-1.14-6.1-1.73l-6.31-1.78c-2.14-.55-4.32-1.08-6.52-1.61s-4.41-1.08-6.64-1.58l-6.72-1.44c-4.49-1-9-1.73-13.46-2.55-2.22-.43-4.44-.75-6.63-1.08l-6.48-1c-4.26-.55-8.38-1.13-12.31-1.52l-5.71-.6-5.34-.45c-3.43-.32-6.58-.47-9.37-.64s-5.22-.25-7.23-.31-3.58-.08-4.66-.09h-1.64l1.64.14,4.63.45c2,.18,4.41.45,7.18.75s5.89.7,9.3,1.14,7.08.95,11,1.49c1.94.25,3.94.57,6,.89l6.24,1c4.22.73,8.59,1.44,13,2.27s8.92,1.62,13.37,2.62l6.7,1.39c2.22.49,4.42,1,6.61,1.54l6.51,1.51,6.3,1.64,6.11,1.58,5.8,1.68c3.77,1.09,7.35,2.07,10.6,3.17s6.26,2,8.92,2.83L263,250C264.91,250.73,266.4,251.23,267.41,251.59Zm-.71.78,6.26,1.76-6.16-2.07L263.54,251l-1.85-.6-2-.59c-2.77-.8-5.89-1.71-9.31-2.66l-11.13-2.78c-4-.95-8.15-1.85-12.49-2.78s-8.85-1.72-13.43-2.61-9.25-1.63-13.92-2.41-9.35-1.44-14-2.05-9.15-1.26-13.56-1.78-8.66-1-12.71-1.44-7.87-.78-11.4-1.13c-7.06-.65-13-1-17.09-1.32-2.07-.15-3.69-.22-4.8-.28l-1.69-.09,6.46.7,7.41.82,9.61,1.12c3.52.44,7.34.86,11.36,1.4l12.66,1.68c4.4.56,8.93,1.22,13.53,1.89s9.26,1.44,13.93,2.16l13.9,2.29c4.57.85,9.08,1.64,13.42,2.5s8.54,1.69,12.51,2.54l11.16,2.49c3.43.89,6.58,1.67,9.38,2.35l2,.5,1.87.53Zm1.16,1.9L274.4,256l-6.51-1.91c-1-.29-2.17-.66-3.43-1l-4.1-1c-2.93-.67-6.22-1.53-9.87-2.15L244.82,249c-1-.18-2-.39-3-.55l-3.09-.48c-4.2-.64-8.61-1.41-13.2-1.94s-9.33-1.21-14.16-1.69l-7.29-.79-7.36-.68c-4.92-.45-9.83-.81-14.68-1.17s-9.61-.63-14.23-.94c-9.23-.54-17.85-.89-25.25-1.16s-13.56-.38-17.87-.45l-6.78-.08,6.78.23,7.77.31,10.08.47,11.93.61,13.3.81c4.61.32,9.38.59,14.21,1s9.76.75,14.66,1.23l7.36.65,7.28.76c4.83.46,9.57,1.06,14.15,1.63s9,1.23,13.2,1.82l3.1.44c1,.16,2,.35,3,.52l5.68,1c3.65.59,7,1.37,9.89,2l4.12.87C265.67,253.66,266.81,254,267.86,254.27Zm-.09.37,6.63,1.4-6.6-1.53c-1.05-.24-2.21-.54-3.48-.79l-4.14-.76c-3-.54-6.28-1.21-10-1.67s-7.62-1.15-11.84-1.6-8.64-1.05-13.25-1.42l-7-.64c-2.37-.23-4.78-.37-7.19-.57l-7.31-.54-7.37-.46c-4.92-.3-9.85-.52-14.69-.74s-9.62-.37-14.24-.56c-9.24-.3-17.86-.45-25.25-.55s-13.55-.08-17.86-.07l-6.78.05,6.77.09c4.32.06,10.47.23,17.86.4L154,245l13.31.48c4.61.2,9.38.35,14.22.61s9.76.48,14.68.8l7.36.43,7.31.51c2.41.19,4.81.33,7.18.54l7,.61c4.6.37,9,.88,13.24,1.31s8.18,1,11.84,1.45,7,1,10,1.5l4.15.67C265.56,254.15,266.72,254.43,267.77,254.64Z" transform="translate(-105.7 -191.41)"/><path class="cls-8" d="M438,209.09s-86.42,4.35-145.64,41.71a.78.78,0,0,0,.84,1.32c29.34-18.52,65.58-28.91,94.47-34.64,14.45-2.87,27.06-4.57,36.05-5.56,4.5-.5,8.09-.81,10.56-1l2.83-.21,1-.05a.79.79,0,0,0-.08-1.57Z" transform="translate(-105.7 -191.41)"/><path class="cls-8" d="M133.34,200.39l.93.1c9.18,1,84.78,10.61,141,52.76a.77.77,0,0,0,1.09-.16.78.78,0,0,0-.15-1.09c-60.44-45.29-142.63-53.15-142.7-53.16a.78.78,0,1,0-.15,1.55Z" transform="translate(-105.7 -191.41)"/><path class="cls-8" d="M127.42,210.66s1.12.07,3.2.27c14.55,1.36,76,8.47,125.46,33.9a.79.79,0,0,0,1.05-.34.77.77,0,0,0-.34-1.05c-56.9-29.26-129.21-34.33-129.26-34.34a.78.78,0,0,0-.84.72.79.79,0,0,0,.73.84Z" transform="translate(-105.7 -191.41)"/><path class="cls-8" d="M431.42,197.26c-.05,0-80.44,11.8-137.66,51.68a.78.78,0,0,0-.2,1.09.79.79,0,0,0,1.09.2c28.39-19.8,62.66-32.67,89.81-40.58,13.58-4,25.39-6.66,33.79-8.39,4.2-.86,7.56-1.47,9.86-1.87,1.15-.2,2-.35,2.63-.44l.91-.15a.78.78,0,1,0-.23-1.54Z" transform="translate(-105.7 -191.41)"/></svg>