<svg xmlns="http://www.w3.org/2000/svg" viewBox="0 0 58.7 89.39"><defs><style>.cls-1{isolation:isolate;}.cls-2{fill:#f8a971;}.cls-3{fill:#48549b;}.cls-4{fill:#f1f2f2;mix-blend-mode:multiply;}</style></defs><title>pen</title><g class="cls-1"><g id="Layer_1" data-name="Layer 1"><polygon class="cls-2" points="58.7 0 55.86 12.91 48.13 7.94 58.7 0"/><polygon class="cls-3" points="57.73 4.43 58.7 0 55.08 2.72 57.73 4.43"/><rect class="cls-2" x="212.78" y="239.63" width="4.79" height="8.03" transform="translate(53.29 406.05) rotate(-147.24)"/><path class="cls-3" d="M242.56,214.05a1,1,0,0,1,.3,1.38l-16.33,25.38-9,1.95a1,1,0,0,1-1.19-.77,1,1,0,0,1,.76-1.18l8.16-1.77,15.89-24.69A1,1,0,0,1,242.56,214.05Z" transform="translate(-210.99 -158.92)"/><path class="cls-3" d="M213.16,238.28a2.3,2.3,0,0,0,.69,3.18l3.87,2.49a2.31,2.31,0,0,0,3.17-.69l4.34-6.75-7.73-5Z" transform="translate(-210.99 -158.92)"/><rect class="cls-2" x="203.72" y="197.09" width="76.91" height="9.19" transform="translate(-269.47 137.28) rotate(-57.24)"/><path class="cls-4" d="M213.85,241.46l1.93,1.24L263,169.35l-3.86-2.49-46,71.42A2.3,2.3,0,0,0,213.85,241.46Z" transform="translate(-210.99 -158.92)"/></g></g></svg>