<svg xmlns="http://www.w3.org/2000/svg" viewBox="0 0 62.33 62.33"><defs><style>.cls-1{isolation:isolate;}.cls-2{fill:#25bcaf;}.cls-3{fill:#ff7d6c;}.cls-4{fill:#feca7a;}.cls-5{fill:#eed7ba;}.cls-6{fill:#3a4d57;}.cls-7{fill:#00acb3;}.cls-8{fill:#d1d3d4;mix-blend-mode:multiply;}</style></defs><title>pencil</title><g class="cls-1"><g id="Layer_1" data-name="Layer 1"><rect class="cls-2" x="251.79" y="191.31" width="8.81" height="66.49" transform="translate(9.19 -309.17) rotate(45)"/><path class="cls-3" d="M282.81,204.17l-6.22-6.23,2.86-2.86a4.41,4.41,0,0,1,6.23,0h0a4.39,4.39,0,0,1,0,6.22Z" transform="translate(-224.64 -193.79)"/><rect class="cls-4" x="276.79" y="197.45" width="8.81" height="4.22" transform="translate(-1.17 -334.17) rotate(45)"/><path class="cls-5" d="M224.74,254.69l4.83-9.74,6.23,6.23L226.06,256A1,1,0,0,1,224.74,254.69Z" transform="translate(-224.64 -193.79)"/><path class="cls-6" d="M228.68,254.71,226,252.08l-1.3,2.61a1,1,0,0,0,1.32,1.32Z" transform="translate(-224.64 -193.79)"/><rect class="cls-7" x="274.75" y="200.82" width="8.81" height="1.55" transform="translate(-0.32 -332.13) rotate(45)"/><rect class="cls-7" x="272.33" y="203.25" width="8.81" height="1.55" transform="translate(0.68 -329.71) rotate(45)"/><path class="cls-8" d="M235.8,251.18l-3.11-3.11,53-53h0a4.39,4.39,0,0,1,0,6.22Z" transform="translate(-224.64 -193.79)"/></g></g></svg>