<svg id="Layer_1" data-name="Layer 1" xmlns="http://www.w3.org/2000/svg" viewBox="0 0 66.23 54.83"><defs><style>.cls-1{fill:#fbb03b;}.cls-2{fill:#ef9d30;}</style></defs><title>protactor</title><rect class="cls-1" x="286.52" y="198.51" width="66.52" height="12.16" transform="translate(-340.61 -29.89) rotate(-22.55)"/><rect class="cls-2" x="286.98" y="199.89" width="64.37" height="6.43" transform="translate(-340.09 -30.24) rotate(-22.55)"/><path class="cls-1" d="M300.05,198.87a17.53,17.53,0,0,1,2.89-9.49,17.35,17.35,0,0,1,7.84-6.47h0a17.38,17.38,0,0,1,22.73,9.4l12.42-5.16a30.82,30.82,0,0,0-40.3-16.65h0A30.84,30.84,0,0,0,289,210.8l12.42-5.16A17.31,17.31,0,0,1,300.05,198.87Z" transform="translate(-286.61 -168.13)"/><path class="cls-2" d="M333.85,182.4a23.34,23.34,0,0,0-25.32-4.92h0a23.32,23.32,0,0,0-12.63,30.44l5.49-2.28a17.31,17.31,0,0,1-1.34-6.77,17.53,17.53,0,0,1,2.89-9.49,17.35,17.35,0,0,1,7.84-6.47h0a17.38,17.38,0,0,1,22.73,9.4L339,190A23.25,23.25,0,0,0,333.85,182.4Z" transform="translate(-286.61 -168.13)"/><polygon class="cls-2" points="58.57 19.33 56.2 20.31 56.08 20.03 58.44 19.02 58.57 19.33"/><path class="cls-2" d="M341,184.87c-.1-.18-.21-.35-.32-.52l2.17-1.37.35.58Zm-50.19,20.81-2.48.63c-.06-.22-.11-.44-.16-.65l2.5-.58C290.72,205.28,290.77,205.48,290.82,205.68Zm47.7-24.32-.4-.47,1.93-1.69.44.52ZM290.1,201.44l-2.55.23-.06-.68,2.56-.17C290.06,201,290.08,201.23,290.1,201.44Zm45.41-23.16-.47-.4,1.64-2,.51.43Zm-45.46,18.85-2.56-.17.06-.67,2.55.23C290.08,196.72,290.06,196.92,290.05,197.13Zm42-21.42-.53-.32,1.31-2.2.58.35Zm-41.37,17.16-2.5-.57c.05-.22.1-.44.16-.66l2.48.63C290.77,192.47,290.72,192.67,290.68,192.87Zm37.55-19.15-.57-.24.95-2.37.62.25Zm-36.27,15-2.37-1c.08-.21.17-.41.26-.62l2.35,1Zm32.19-16.42-.61-.14.58-2.5.65.16Zm-30.28,12.55-2.19-1.31c.11-.19.23-.38.35-.57l2.17,1.36Zm26-13.27-.62-.05.18-2.55.67,0Zm-23.53,9.76-2-1.64.44-.51,1.93,1.68C296.63,181.06,296.5,181.22,296.37,181.38Zm19.22-9.81-.61.05-.24-2.55.68,0Zm-16.21,6.73-1.69-1.93.51-.44,1.64,2Zm11.95-6.1-.6.15-.63-2.48.66-.16Zm-8.5,3.53-1.36-2.17c.19-.12.38-.24.58-.35l1.31,2.19Zm4.39-2.24-.3.12-.27.12-1-2.35.3-.13.33-.13Z" transform="translate(-286.61 -168.13)"/><polygon class="cls-2" points="5.48 41.37 3.12 42.35 2.99 42.04 5.37 41.09 5.48 41.37"/><rect class="cls-2" x="291.78" y="220.1" width="0.32" height="1.92" transform="translate(-349.05 -39.32) rotate(-22.54)"/><path class="cls-2" d="M348.41,198.66l-.59.24-.73-1.77.58-.24Zm-3.5,1.45-.58.24-.74-1.77.58-.24Zm-3.5,1.45-.58.25-.74-1.78.59-.24ZM337.92,203l-.59.24-.73-1.78.58-.24Zm-3.5,1.45-.58.24-.74-1.77.58-.25Zm-3.5,1.45-.58.24-.74-1.77.59-.25Zm-3.49,1.45-.59.24-.73-1.77.58-.24Zm-3.5,1.45-.58.24-.74-1.77.58-.24Zm-3.5,1.45-.58.25-.74-1.78.59-.24Zm-3.49,1.46-.59.24-.73-1.78.58-.24Zm-3.5,1.45-.58.24-.74-1.78.58-.24Zm-3.5,1.45-.58.24-.74-1.77.59-.25Zm-3.49,1.45-.59.24-.73-1.77.58-.24Zm-3.5,1.45-.58.24-.74-1.77.58-.24Zm-3.5,1.45-.58.25-.74-1.78.59-.24ZM296,220.43l-.59.25-.73-1.78.58-.24Z" transform="translate(-286.61 -168.13)"/><rect class="cls-2" x="350.94" y="195.54" width="0.32" height="1.92" transform="translate(-335.11 -18.56) rotate(-22.54)"/></svg>