<svg xmlns="http://www.w3.org/2000/svg" width="852" height="522.135" viewBox="0 0 852 522.135">
  <g id="Group_464" data-name="Group 464" transform="translate(-64.442 -3427.896)">
    <g id="Group_391" data-name="Group 391" transform="translate(251.496 3428.243)">
      <rect id="Rectangle_189" data-name="Rectangle 189" width="488" height="343" transform="translate(12.946 -0.347)" fill="#dc8758"/>
      <rect id="Rectangle_188" data-name="Rectangle 188" width="477" height="343" transform="translate(12.946 -0.347)" fill="#e19974"/>
      <rect id="Rectangle_187" data-name="Rectangle 187" width="442" height="314" transform="translate(32.946 14.653)" fill="#266140"/>
      <rect id="Rectangle_50" data-name="Rectangle 50" width="436" height="306" transform="translate(32.946 22.653)" fill="#3e815b"/>
      <g id="Group_388" data-name="Group 388" transform="translate(85.472 37.171)">
        <text id="School_" data-name="School " transform="matrix(0.996, -0.087, 0.087, 0.996, 8.105, 115.002)" fill="#fff" font-size="117" font-family="Authenia-Regular, Authenia"><tspan x="0" y="0">School </tspan></text>
        <text id="Time" transform="translate(102.21 218.134) rotate(-9)" fill="#fff" font-size="119" font-family="Authenia-Regular, Authenia"><tspan x="0" y="0">Time</tspan></text>
      </g>
      <rect id="Rectangle_190" data-name="Rectangle 190" width="513" height="17" transform="translate(-0.054 342.652)" fill="#dc8758"/>
      <rect id="Rectangle_203" data-name="Rectangle 203" width="193.262" height="17.411" rx="8.706" transform="translate(80.101 512.095) rotate(-59)" fill="#dc8758"/>
      <rect id="Rectangle_204" data-name="Rectangle 204" width="193.262" height="17.411" rx="8.706" transform="translate(399.228 521.788) rotate(-120)" fill="#dc8758"/>
      <rect id="Rectangle_205" data-name="Rectangle 205" width="87.055" height="17.411" rx="8.706" transform="translate(237.445 433.75) rotate(-90)" fill="#dc8758"/>
      <rect id="Rectangle_191" data-name="Rectangle 191" width="477" height="2" transform="translate(12.946 340.652)" fill="#fff"/>
      <g id="Group_390" data-name="Group 390" transform="translate(85.148 329.416)">
        <path id="Rectangle_192" data-name="Rectangle 192" d="M13,0H31A13,13,0,0,1,44,13v0a0,0,0,0,1,0,0H0a0,0,0,0,1,0,0v0A13,13,0,0,1,13,0Z" transform="translate(-0.202 0.237)" fill="#075991"/>
        <path id="Rectangle_193" data-name="Rectangle 193" d="M13,0H30A13,13,0,0,1,43,13v0a0,0,0,0,1,0,0H0a0,0,0,0,1,0,0v0A13,13,0,0,1,13,0Z" transform="translate(-0.202 0.237)" fill="#106eae"/>
      </g>
      <rect id="Rectangle_194" data-name="Rectangle 194" width="35" height="3" rx="1.5" transform="translate(36.946 337.652)" fill="#fff"/>
    </g>
    <g id="Group_411" data-name="Group 411" transform="translate(671.875 3814.367)">
      <path id="Path_505" data-name="Path 505" d="M414.13,330.427h.166a1.781,1.781,0,0,0,1.781-1.9l-2.665-122.311-7.852-.967,6.647,123.3a1.953,1.953,0,0,0,1.923,1.881Z" transform="translate(-209.509 -199.92)" fill="#b4663b"/>
      <path id="Path_506" data-name="Path 506" d="M95.974,330.427h-.2a1.78,1.78,0,0,1-1.78-1.9l2.665-122.311,7.852-.967-6.647,123.3a1.953,1.953,0,0,1-1.893,1.881Z" transform="translate(-82.852 -199.92)" fill="#b4663b"/>
      <rect id="Rectangle_196" data-name="Rectangle 196" width="222.425" height="8.546" rx="4.273" fill="#e19974"/>
    </g>
    <g id="Group_410" data-name="Group 410" transform="translate(680.434 3791.593)">
      <path id="Path_507" data-name="Path 507" d="M33,54.17H57.983a4.494,4.494,0,0,1,4.494,4.494h0a4.6,4.6,0,0,1-4.6,4.6H33Z" transform="translate(-27.386 -47.374)" fill="#eaf7f9"/>
      <path id="Path_508" data-name="Path 508" d="M159.287,179.4v1.362a3.915,3.915,0,0,1-.54,2,3.977,3.977,0,0,1-3.437,1.981H107.082a.579.579,0,0,1-.572-.579v-.2a.579.579,0,0,1,.572-.579h29.4a3.672,3.672,0,0,0,.846-2.349v-1.746a3.976,3.976,0,0,0-.117-.924,3.649,3.649,0,0,0-.681-1.347H107.082a.579.579,0,0,1-.572-.579v-.2a.579.579,0,0,1,.572-.579h48.471a3.727,3.727,0,0,1,3.735,3.742Z" transform="translate(-102.235 -168.864)" fill="#01483f"/>
      <path id="Path_509" data-name="Path 509" d="M159.146,178.369H137.224a3.649,3.649,0,0,0-.681-1.347H107.082a.579.579,0,0,1-.572-.579v-.2a.579.579,0,0,1,.572-.579h48.471a3.734,3.734,0,0,1,3.594,2.709Z" transform="translate(-102.235 -168.864)" fill="#067254"/>
      <path id="Path_510" data-name="Path 510" d="M33.03,59.97l3.57.157-3.57.086Z" transform="translate(-27.393 -48.633)" fill="#c9fce9"/>
      <path id="Path_511" data-name="Path 511" d="M33.03,61.79l8.495.157-8.495.094Z" transform="translate(-27.393 -49.028)" fill="#c9fce9"/>
      <path id="Path_512" data-name="Path 512" d="M115.078,194.316h27.4V187.27H114.859a3.429,3.429,0,0,0-3.429,3.429h0A3.648,3.648,0,0,0,115.078,194.316Z" transform="translate(-103.303 -171.385)" fill="#847d3d"/>
      <path id="Path_513" data-name="Path 513" d="M148.1,194.316h31.16V187.27H148.032a3.492,3.492,0,0,0-3.492,3.5h0A3.57,3.57,0,0,0,148.1,194.316Z" transform="translate(-110.491 -171.385)" fill="#eaf7f9"/>
      <path id="Path_514" data-name="Path 514" d="M141.722,195.977h37.9a.525.525,0,0,0,.525-.525h0a.532.532,0,0,0-.525-.532h-37.9a.532.532,0,0,0-.532.532h0a.524.524,0,0,0,.532.525Z" transform="translate(-109.763 -173.045)" fill="#847d3d"/>
      <path id="Path_515" data-name="Path 515" d="M141.722,188.3h37.9a.525.525,0,0,0,.525-.525h0a.532.532,0,0,0-.525-.532h-37.9a.532.532,0,0,0-.532.532h0a.525.525,0,0,0,.532.525Z" transform="translate(-109.763 -171.378)" fill="#847d3d"/>
      <path id="Path_516" data-name="Path 516" d="M112.5,70.27l-4.2.117,4.2.07Z" transform="translate(-43.732 -50.869)" fill="#c9fce9"/>
      <path id="Path_517" data-name="Path 517" d="M110.894,68.19l-10.014.117,10.014.07Z" transform="translate(-42.121 -50.417)" fill="#c9fce9"/>
      <path id="Path_518" data-name="Path 518" d="M176.23,189.794a1.652,1.652,0,0,1,.572.783,1.57,1.57,0,0,1,.047.274v2.169l1.268-.783,1.261.783v-2.036a1.566,1.566,0,0,0-.313-1,.47.47,0,0,0-.344-.211Z" transform="translate(-117.37 -171.927)" fill="#fd9c28"/>
      <path id="Path_519" data-name="Path 519" d="M176.23,189.785a1.652,1.652,0,0,1,.572.783h2.537s-.094-.72-.619-.838Z" transform="translate(-117.37 -171.918)" fill="#e65924"/>
      <path id="Path_520" data-name="Path 520" d="M82.508,45.49H96.021a3.288,3.288,0,0,1,3.288,3.288h0a3.5,3.5,0,0,1-3.5,3.5H82.5V45.49Z" transform="translate(-38.132 -45.49)" fill="#fd9c28"/>
      <path id="Path_521" data-name="Path 521" d="M149.926,173.78H104V167h46.02a3.359,3.359,0,0,1,3.359,3.359h0a3.429,3.429,0,0,1-3.453,3.421Z" transform="translate(-101.69 -166.984)" fill="#eaf7f9"/>
      <path id="Path_522" data-name="Path 522" d="M155.925,175.378H101.559a.509.509,0,0,1-.509-.509h0a.509.509,0,0,1,.509-.509h54.366a.509.509,0,0,1,.509.509h0A.509.509,0,0,1,155.925,175.378Z" transform="translate(-101.05 -168.582)" fill="#fd9c28"/>
      <path id="Path_523" data-name="Path 523" d="M155.925,168H101.559a.509.509,0,0,1-.509-.509h0a.509.509,0,0,1,.509-.509h54.366a.509.509,0,0,1,.509.509h0A.509.509,0,0,1,155.925,168Z" transform="translate(-101.05 -166.98)" fill="#fd9c28"/>
    </g>
    <g id="Group_412" data-name="Group 412" transform="translate(826.524 3773.728)">
      <path id="Path_524" data-name="Path 524" d="M262.474,21.77l-.324,4.174,1.935-.31Z" transform="translate(-261.691 -17.07)" fill="#4ac195"/>
      <path id="Path_525" data-name="Path 525" d="M294.973,24.69l-1.713,3.817,1.929.357Z" transform="translate(-271.822 -18.021)" fill="#4ac195"/>
      <path id="Path_526" data-name="Path 526" d="M291.346,14.8l-1.706,3.824,1.929.357Z" transform="translate(-270.643 -14.8)" fill="#4ac195"/>
      <g id="Group_409" data-name="Group 409" transform="translate(0 3.827)">
        <rect id="Rectangle_197" data-name="Rectangle 197" width="1.962" height="23.111" transform="matrix(0.987, -0.159, 0.159, 0.987, 0.457, 5.058)" fill="#679b40"/>
        <rect id="Rectangle_198" data-name="Rectangle 198" width="1.962" height="23.111" transform="matrix(0.983, 0.183, -0.183, 0.983, 21.44, 6.664)" fill="#679b40"/>
        <rect id="Rectangle_199" data-name="Rectangle 199" width="1.962" height="23.111" transform="translate(18.993 0) rotate(10.52)" fill="#679b40"/>
        <rect id="Rectangle_200" data-name="Rectangle 200" width="15.443" height="22.254" transform="translate(7.722 14.367)" fill="#e65924"/>
        <rect id="Rectangle_201" data-name="Rectangle 201" width="15.443" height="22.254" transform="translate(0 14.367)" fill="#fd9c28"/>
      </g>
    </g>
    <g id="teacher" transform="translate(120.533 3571.188)">
      <path id="Path_527" data-name="Path 527" d="M272.2,314.27c-7.058,43.953-12.877,91.317-10.356,116.26,2.068,6.979,8.489,9.309,14.16,10.216l-3.9,4.249-10.975.628-14.639-5.776A58.679,58.679,0,0,0,248,431.908c.776-5.863-1.937-19.263-1.937-19.263s-7.145-46.282-3.08-56.708a42.628,42.628,0,0,0,2.382-10h0c1.2-9.344.523-20.581-.262-31.512-.872-11.865-1.85-23.355-.724-31.66a599.277,599.277,0,0,0,5.182-70.667H278.3s8.14,23.137,4.362,42.967C279.428,271.992,275.66,292.721,272.2,314.27Z" transform="translate(-187.217 -73.142)" fill="#f5c99d"/>
      <path id="Path_528" data-name="Path 528" d="M245.862,359.668c1.2-9.344.523-20.581-.262-31.512l21.217-8.576,5.871,8.4C271.79,329.089,256.008,347.707,245.862,359.668Z" transform="translate(-187.71 -86.854)" fill="#d8a982"/>
      <path id="Path_529" data-name="Path 529" d="M340.53,177.831a53.979,53.979,0,0,1,5.584-5.147c2.329-1.745,8.873-3.4,9.536-.55.3,1.274-2,4.083-3.655,5.086s-1.911,2.277-3.673,4.066-6.055,1.884-6.055,1.884Z" transform="translate(-199.82 -67.847)" fill="#f5c99d"/>
      <path id="Path_530" data-name="Path 530" d="M228.262,134.375c-1.37-2.617,29.872-12.153,30.36,13.906,0,0,58.522-1.44,30.535-34.025-9.667-11.289-8.672-20.624-8.384-29.314s-6.028-33.955-27.691-31.407c0,0-5.671-2.3-12.746,1.37C224.275,63.211,188.191,143.98,228.262,134.375Z" transform="translate(-183.17 -52.823)" fill="#070707"/>
      <path id="Path_531" data-name="Path 531" d="M277.45,175.068a57.083,57.083,0,0,0,5.819,8.812c4.528,5.671,11.507,12.214,20.275,13.514a21.811,21.811,0,0,0,12.039-1.954h0c10.635-4.729,18.644-15.59,18.644-15.59a8.724,8.724,0,0,0-1.2-8.593s-21.488,4.842-23.556,3.813-13.959-35.421-16.829-39.739-12.528-6.569-12.528-6.569Z" transform="translate(-191.773 -62.51)" fill="#b8db70"/>
      <path id="Path_532" data-name="Path 532" d="M284.022,190.275c4.528,5.671,11.507,12.214,20.275,13.514a21.811,21.811,0,0,0,12.039-1.954c-.419.052-11.045,1.37-15.285-6.212-4.319-7.738-8.995-20.014-15.416-15.922C282.87,181.472,282.992,185.86,284.022,190.275Z" transform="translate(-192.525 -68.905)" fill="#97c157"/>
      <path id="Path_533" data-name="Path 533" d="M204.332,476.29h-9.911c-2.879,0-6.159-2.207-6.979-7.4s-6.718-8.035-7.991-12.284c-.872-2.923,1.2-5.008,3.158-6.613.872-.742,1.745-1.378,2.338-1.937,2.015-2.033,3.917-10.818,3.917-10.818l10.469,5.5s-4.921,8.367-2.085,17.771c1.326,4.362,2.513,8.454,5.453,10.984a10.165,10.165,0,0,0,2.39,1.518C209.653,475.1,204.332,476.29,204.332,476.29Z" transform="translate(-179.244 -101.864)" fill="#f5c99d"/>
      <path id="Path_534" data-name="Path 534" d="M216.644,157.514a146.554,146.554,0,0,0,0,17.03c.366,6.159,6.587,14.4,7.477,16.445,2.216,5.121,4.711,5.95,4.711,5.95l19.35,4.737,6.8,1.666,21.444-6.4s9.771-27.272,5.845-42.618a117.831,117.831,0,0,0-9.911-26.016s-24.664-6.412-43.77-.829Z" transform="translate(-183.984 -62.055)" fill="#b8db70"/>
      <path id="Path_535" data-name="Path 535" d="M226.731,211s-16.2,21.741-17.71,36.441,12.816,55.373,9.6,69.7c-2.39,10.635-15.119,19.071-18.635,45.881-1.221,9.309-5.627,27.918-9.693,45.366l8.977,8.811c21.383-48.734,43.49-79.391,44.8-90.192.925-7.625,5.235-47.739,22.8-77.358,4.214-7.11-2.617-35.386-2.617-35.386Z" transform="translate(-180.654 -73.002)" fill="#f5c99d"/>
      <path id="Path_536" data-name="Path 536" d="M279.668,261.237c-2.382,29.026-5.182,53.48-5.182,53.48A71.539,71.539,0,0,1,241.8,325h0a63.381,63.381,0,0,1-29.008-5.016s-3.943-70.108-1.439-81.275,13.619-26.531,13.619-26.531l49.981,1.928S282.059,232.2,279.668,261.237Z" transform="translate(-183.234 -73.152)" fill="#fd9c28"/>
      <path id="Path_537" data-name="Path 537" d="M278.426,206.32s-4.266,3.376-12.737,3.551c-10.111.2-35.185-2.617-35.185-2.617a20.729,20.729,0,0,0-1.073,6.395s30.622,7.73,48.367,1.134C277.8,214.817,280.083,210.508,278.426,206.32Z" transform="translate(-185.647 -72.405)" fill="#e65924"/>
      <path id="Path_538" data-name="Path 538" d="M268.48,213.625c0-2.879,2.076-5.235,4.624-5.235s4.615,2.347,4.615,5.235-2.068,5.235-4.615,5.235S268.48,216.5,268.48,213.625Zm1.535,0c0,2.041,1.387,3.7,3.088,3.7s3.088-1.658,3.088-3.7-1.387-3.7-3.088-3.7S270.015,211.583,270.015,213.625Z" transform="translate(-190.628 -72.669)" fill="#fff"/>
      <rect id="Rectangle_202" data-name="Rectangle 202" width="41.597" height="56.943" transform="translate(43.272 167.207) rotate(-138.95)" fill="#45391d"/>
      <path id="Path_539" data-name="Path 539" d="M238.451,213.29s11.49,1.344,11.455,4.074-2.862,8.34-4.284,8.585-9.352-7.581-9.352-7.581Z" transform="translate(-186.519 -73.294)" fill="#f5c99d"/>
      <path id="Path_540" data-name="Path 540" d="M228.763,127.1s-15.346,1.073-21.226,15.372-17.047,38.317-17.047,42.356,6.238,16.489,39.722,23.652c0,0,3.49-3.647,3.254-6.526,0,0-20.938-17.955-20.851-20.066.1-3.97,3.429-9.213,21.811-27.569C239.39,149.347,228.763,127.1,228.763,127.1Z" transform="translate(-180.679 -62.298)" fill="#b8db70"/>
      <path id="Path_541" data-name="Path 541" d="M337.283,205.826,383.269,70.652c.209-.619.5-1.2-.122-1.431l-.55-.2c-.628-.227-.811.174-1.047.8L332.529,203.06a2.617,2.617,0,0,0,1.378,3.237l1.134.506a1.649,1.649,0,0,0,2.242-.977Z" transform="translate(-198.781 -54.881)" fill="#002822"/>
      <path id="Path_542" data-name="Path 542" d="M345.035,177.851a22.149,22.149,0,0,0,4.3-.646c1.745-.454,3.978-1.265,3.978-1.265,1.309.951-3.254,3.559-4.414,5.348-.951,1.448-2.033,1.867-4.65,2.434Z" transform="translate(-200.295 -68.529)" fill="#f5c99d"/>
      <path id="Path_543" data-name="Path 543" d="M259.081,480.511c6.395-.785,4.711.872,13.671.872s12.031-2.931,12.45-4.214c.384-1.143-3.943-2.068-8.567-3.15l-.166.113a24.637,24.637,0,0,1-13.025,2.425c-6.02-.55-12.17-3.019-16.323-3.429a15.119,15.119,0,0,0-.393,4.161C247.051,481.313,252.686,481.3,259.081,480.511Z" transform="translate(-187.852 -106.442)" fill="#1e3865"/>
      <path id="Path_544" data-name="Path 544" d="M204.332,478.155h-9.911c-2.879,0-6.159-2.207-6.979-7.4s-6.718-8.035-7.991-12.284c-.872-2.923,1.2-5.008,3.158-6.613,1.091,1.631,3.437,5.7,5.749,13.2,2.687,8.768,9.143,9.021,14.317,8.3a10.166,10.166,0,0,0,2.39,1.518C209.653,476.968,204.332,478.155,204.332,478.155Z" transform="translate(-179.244 -103.729)" fill="#1e3865"/>
      <path id="Path_545" data-name="Path 545" d="M237.125,123.1a9.256,9.256,0,0,0,6.753-5.88,47.008,47.008,0,0,0,2.294-15.634l.968.192,16.332,3.237s-.375,5.139-.384,9.981v.113a9.387,9.387,0,0,0,6.779,9.082c2.059.6-9.832,16.262-11.193,15.957C255.838,139.514,236.139,123.322,237.125,123.1Z" transform="translate(-186.624 -59.044)" fill="#f5c99d"/>
      <path id="Path_546" data-name="Path 546" d="M264.942,105.047s-.375,5.139-.384,9.981c-9.134-.262-13.959-8.593-15.948-13.217Z" transform="translate(-188.094 -59.072)" fill="#d8a982"/>
      <path id="Path_547" data-name="Path 547" d="M267.631,105.435s-21.628.358-21.636-13.086-2.818-22.482,10.984-23.311,16.5,4.362,17.588,8.829S273.249,105,267.631,105.435Z" transform="translate(-187.729 -54.88)" fill="#f5c99d"/>
      <path id="Path_548" data-name="Path 548" d="M265.811,68.27s-5.924,15.8-15.006,18.138-13.025-.1-13.025-.1a25.754,25.754,0,0,0,8.419-15.2S261.344,60.75,265.811,68.27Z" transform="translate(-186.712 -54.444)" fill="#070707"/>
      <path id="Path_549" data-name="Path 549" d="M268.23,69.764s4.362,1.64,6.194,4.842a21.732,21.732,0,0,1,2.923,12.362s4.458-10.74-.55-16.812C271.519,63.718,268.23,69.764,268.23,69.764Z" transform="translate(-190.597 -54.656)" fill="#070707"/>
      <path id="Path_550" data-name="Path 550" d="M266,101.459s.366,1.588,4.319,1.344c0,0,3.315-.209,3.211-1.954A10.652,10.652,0,0,0,266,101.459Z" transform="translate(-190.312 -58.896)" fill="#fff"/>
      <path id="Path_551" data-name="Path 551" d="M258.424,142.573s-14.631-15.625-15.18-22c0,0-3.725,1.029-8.114,5.3,0,0,3.49,8.812,7.712,11.717a27.047,27.047,0,0,0,5.461-1.422,46.3,46.3,0,0,1-2.739,4.039S252.195,143.96,258.424,142.573Z" transform="translate(-186.374 -61.465)" fill="#97c157"/>
      <path id="Path_552" data-name="Path 552" d="M266.951,121.25s5.767,10.539-5.121,21.409c0,0,6.831-1.309,10.347-6.107,0,0-1.091-2.617-2.015-3.193,0,0,2.05-.811,3.341.384,0,0,.776-5.653,0-7.372S268.644,121.2,266.951,121.25Z" transform="translate(-189.78 -61.552)" fill="#97c157"/>
      <path id="Path_553" data-name="Path 553" d="M260.58,145.631a1.091,1.091,0,1,1,1.091,1.091A1.091,1.091,0,0,1,260.58,145.631Z" transform="translate(-189.621 -64.523)" fill="#002822"/>
      <path id="Path_554" data-name="Path 554" d="M267.24,163.331a1.091,1.091,0,1,1,1.082,1.091A1.091,1.091,0,0,1,267.24,163.331Z" transform="translate(-190.47 -66.781)" fill="#002822"/>
      <path id="Path_555" data-name="Path 555" d="M268.48,184.091a1.091,1.091,0,1,1,1.091,1.091,1.091,1.091,0,0,1-1.091-1.091Z" transform="translate(-190.628 -69.43)" fill="#002822"/>
      <path id="Path_556" data-name="Path 556" d="M284.242,268.41c-2.382,29.026-5.182,53.48-5.182,53.48a71.539,71.539,0,0,1-32.69,10.286,53.087,53.087,0,0,0,19.3-13.767C273.851,308.821,284.242,268.41,284.242,268.41Z" transform="translate(-187.808 -80.326)" fill="#e65924"/>
    </g>
    <rect id="Rectangle_206" data-name="Rectangle 206" width="852" height="3" transform="translate(64.442 3945.896)" fill="#fff"/>
  </g>
</svg>
