<svg xmlns="http://www.w3.org/2000/svg" width="502.591" height="454.498" viewBox="0 0 502.591 454.498">
  <g id="Group_458" data-name="Group 458" transform="translate(-1577.03 -1109.385)">
    <path id="nepal-map" d="M96.185,35.247h5.293a7.913,7.913,0,0,0,2.006,0h.669l1.059.279h.279a2.005,2.005,0,0,0,.669.446l1,.334,1.56.557,1.393.5a6.685,6.685,0,0,0,2.563.557h0a6.128,6.128,0,0,0,2.117-.5h5.237a1.337,1.337,0,0,1,.613,0,3.621,3.621,0,0,1,1.17,1.337,20.669,20.669,0,0,0,2.173,2.9,30.925,30.925,0,0,0,2.674,2.786,4.624,4.624,0,0,0,.891.669s0,.334,0,.446h0a15.381,15.381,0,0,0-.446,1.5,5.571,5.571,0,0,0,.724,3.733,3.4,3.4,0,0,0,1.337,1.058,2.4,2.4,0,0,0,1.337.446h0l.724.279h1.114l1.059.39h0l.5.39h.5a2.786,2.786,0,0,0,2.117.836h0a3.121,3.121,0,0,0,1.337-.446h.446a6.518,6.518,0,0,1,2.006,0h.836v.279a10.7,10.7,0,0,0,1,1.226l.334.39.891,1a4.178,4.178,0,0,0,2.841,1.059,7.967,7.967,0,0,0,3.231,1.226h1.56l.446.669a3.4,3.4,0,0,0,.39.78v.334l.39.613.334.5a3.287,3.287,0,0,0,1,1.281h.334l.724.613.39.78h0a3.565,3.565,0,0,0,1.337.947,7.188,7.188,0,0,0,1.56.446h1.059a8.359,8.359,0,0,1,1.894.669H160.2a2.619,2.619,0,0,0-1.281,2.006,2.953,2.953,0,0,0,1.17,2.563,5.905,5.905,0,0,0,1.727,1.448l1,.446h.78a3.342,3.342,0,0,0,.613.334l.669.446a3.956,3.956,0,0,0,1.114.613,2.285,2.285,0,0,0,1.059.279H168.5a4.9,4.9,0,0,0,1.337,0h3.621l1,.5,1.114.334a2.786,2.786,0,0,1,.891.279,5.013,5.013,0,0,0,1.226.557l.613.39.613.5h0a3.9,3.9,0,0,0,2.786,3.064,3.955,3.955,0,0,0,1.114,0,6.184,6.184,0,0,0,2.674-.613,4.458,4.458,0,0,0,1.281-.724,5.237,5.237,0,0,0,1.281.557h.557a3.566,3.566,0,0,0,1.783-.557h1.059a3.622,3.622,0,0,1,.891.5h0a2.563,2.563,0,0,0,1,3.343,3.176,3.176,0,0,0,2.34.891h1l.446.557.557.613.669.947.39.446.557.78.891.669a3.12,3.12,0,0,0,.891.724,6.129,6.129,0,0,0,.891.669l1.56,1.226.669.5h0a3.566,3.566,0,0,0,0,1.393h0a4.791,4.791,0,0,0,.5,2.507,1.035,1.035,0,0,0,.39.78,3.51,3.51,0,0,0,.557.669,2.841,2.841,0,0,0,.669.891h0a2.451,2.451,0,0,0,1.56.669h.947l.669.724.947.724.446.334.557.446.5.334.891.613.78.613h.334l1.059.836,1,.5h.39a6.63,6.63,0,0,0,1.894.446h.446a3.4,3.4,0,0,0,2.841-1.5,3.9,3.9,0,0,0,.5-2.117,6.24,6.24,0,0,0,1.337-.557h.669a5.571,5.571,0,0,0,2.73-1.17,4.791,4.791,0,0,0,2.006-2.173,2.006,2.006,0,0,0,0-.613v-.446l.334-.613h.891a4.29,4.29,0,0,0,3.064-1.616v-.334h.334l.5.334a2.229,2.229,0,0,0,1.281.446h.5a4.9,4.9,0,0,0,1.56.669h2.228a3.9,3.9,0,0,0,2.618-.947l.39-.39a2.619,2.619,0,0,0,.557.557h.613l.557.446a11.747,11.747,0,0,1,1.226.947,17.336,17.336,0,0,0,1.393,1.114,4.345,4.345,0,0,1,0,1.226,4.066,4.066,0,0,0,0,1,4.288,4.288,0,0,0,0,.836v1.059a3.51,3.51,0,0,0,1.393,3.008,2.451,2.451,0,0,0,.836.446h.39v1.671a3.51,3.51,0,0,0,2.173,2.953l1.17-1.95-.947,2.061.669.39a1.56,1.56,0,0,1,.334.5,1.727,1.727,0,0,1,.334.724v1.393a5.567,5.567,0,0,0,0,1v.724a3.51,3.51,0,0,0,0,1.671,12.259,12.259,0,0,0,.724,2.006,7.078,7.078,0,0,0,.947,1.5v.334a3.9,3.9,0,0,0,3.064,1.671,12.2,12.2,0,0,0,2.006,0h1.5c.446,0,1.059.613,1.616,1.226h0a2.618,2.618,0,0,0,.78.446.947.947,0,0,0,.334.334h0l.724.724.5.5a15.588,15.588,0,0,0,1.671,1.671,4.513,4.513,0,0,0,3.064,1.281h2.953a10.076,10.076,0,0,1,1.281,0h4.123l.836.947,1.059,1.281a2.451,2.451,0,0,0,.446.613,5.572,5.572,0,0,0,.947,1.059l.613.613.613.669.39.39.836.836a9.137,9.137,0,0,0,2.73,1.783h.334l1.281.5h1.393a6.849,6.849,0,0,0,1.393.446,2.507,2.507,0,0,0,.891,0h5.348a7.522,7.522,0,0,0,3.064-1.56,5.181,5.181,0,0,0,1.727-3.176,3.4,3.4,0,0,0,0-1h2.563s.39,0,.78.78l.334.334a6.182,6.182,0,0,1,1.059,1.5,4.01,4.01,0,0,1,0,1.058,11.146,11.146,0,0,1-.334,2.117l-.334,1.56a9.076,9.076,0,0,1-.39,1.671,4.241,4.241,0,0,0,0,.891v.39a4.176,4.176,0,0,0-.39.669,2.673,2.673,0,0,0,0,1,2.562,2.562,0,0,0,0,.78v.5h0a3.176,3.176,0,0,0-.279,5.627,10.522,10.522,0,0,0,.334,1.17,5.96,5.96,0,0,0,1.839,2.507l.724.557h.279a7.3,7.3,0,0,0,1.337.78,20.621,20.621,0,0,0,2.228.891,5.236,5.236,0,0,0,1.894.334l.39-2.173v2.228h4.29a8.135,8.135,0,0,1,2.4,0h4.68a3.4,3.4,0,0,0,1.337,0,11.588,11.588,0,0,0,1.337-.836h0l.613-.334.669-.5h.279a5.57,5.57,0,0,1,1.281-.669h1.281a2.061,2.061,0,0,0,1,0h1.393a1.784,1.784,0,0,0,.613,0h.557a1.337,1.337,0,0,0,.557,0,30.014,30.014,0,0,0,2.9,1.671,6.182,6.182,0,0,0,1.894.669,6.461,6.461,0,0,0,1.616,0h.669a3.9,3.9,0,0,0,3.12-3.454.5.5,0,0,0,0,.279,7.133,7.133,0,0,0,0,1.671l.613,1.95a5.961,5.961,0,0,0,1.448,2.4,4.178,4.178,0,0,0,1.95,1.393h0l.39.39a5.015,5.015,0,0,0,1.114.78l.891.836.446.5.5.557v.724q.014.306,0,.613v.446a.782.782,0,0,1,0,.334,3.4,3.4,0,0,1,0,.669l.279.5v.334h0a6.739,6.739,0,0,0,0,1.059,1.433,1.433,0,0,0,.39,1.17h0c0,.613.5,1.17.78,1.783l.39.78a17.27,17.27,0,0,0,1.616,2.786,8.3,8.3,0,0,0,1.059,1.337,4.847,4.847,0,0,0,2.284,1.449,4.735,4.735,0,0,1,1.226.5,7.577,7.577,0,0,0,2.061.724,8.245,8.245,0,0,0,1.894,0h.78a4.847,4.847,0,0,0,1.95-.334,4.457,4.457,0,0,0,1.95-1.17,3.622,3.622,0,0,0,1.393-2.228,6.858,6.858,0,0,0,0-1.894v-.446a.612.612,0,0,1,0-.446v-.39a3.01,3.01,0,0,0,0-1,2.287,2.287,0,0,0,0-.613s0-.5,0-.891v-2.674h.334l.947-.78h0a1.671,1.671,0,0,0,.613-.334,2.731,2.731,0,0,0,.557-.5,1.338,1.338,0,0,1,.446-.334h.334v2.117a6.017,6.017,0,0,0,0,1.671,9.081,9.081,0,0,0,.5,1.448,11.142,11.142,0,0,0,1.727,3.064,18.171,18.171,0,0,0,1.727,1.839l.39.39a2.451,2.451,0,0,0,1.449.613h.557a1.839,1.839,0,0,1,.557.334,6.24,6.24,0,0,0,3.566.947h3.064a3.788,3.788,0,0,0,1.449,0h.947a8.078,8.078,0,0,0,1.226-.5h.39a3.231,3.231,0,0,0,1.059-.334,7.353,7.353,0,0,0,1.114-.669h.334a5.181,5.181,0,0,0,1-.836l.446-.446a3.231,3.231,0,0,0,1.114-2.451,3.844,3.844,0,0,0,1.95-3.566h0a1.113,1.113,0,0,0,0-.39,2.06,2.06,0,0,0,0-.669v-.557a5.233,5.233,0,0,1,0-.947v-.279a1.837,1.837,0,0,0,.279-.669h.446a4.958,4.958,0,0,0,2.284.39h2.117a2.4,2.4,0,0,0,2.117-2.674,4.846,4.846,0,0,1,.446,1.281,5.069,5.069,0,0,0,.557,1.616l.39.724a3.175,3.175,0,0,0,.947,1.17,6.072,6.072,0,0,0,3.231,1.281h2.4a3.566,3.566,0,0,1,1.281,0h.613a4.347,4.347,0,0,1,1,.446l.446.334.669.5a5.125,5.125,0,0,0,1.114.947,5.57,5.57,0,0,0,1.671.557h5.4a24.728,24.728,0,0,1,2.618,1.393h0l.446.5.724.557h0a2.786,2.786,0,0,0,1.17.724h.78a5.9,5.9,0,0,0,1.448.669,8.858,8.858,0,0,0,2.061.557h1.226l1.114,2.006h1.059a5.571,5.571,0,0,0,2.117.39h2.4a4.791,4.791,0,0,0,2.173-.557,10.083,10.083,0,0,0,1.95-1.114h0l.5-.334a3.508,3.508,0,0,1,.613-.446h0l.334.334a2.619,2.619,0,0,0,1.727.613h.947l1.059-.446h.557a3.008,3.008,0,0,0,1.337-.613,1.728,1.728,0,0,0,.724-.279l.557-.334a11.147,11.147,0,0,0,1.671-1.114l.669-.5a1.56,1.56,0,0,1,.891,0h0a2.619,2.619,0,0,0,.557.613,5.57,5.57,0,0,0,1.449.836,4.567,4.567,0,0,0,.947.5h.334a5.571,5.571,0,0,0,2.841.891h.334a3.788,3.788,0,0,0,1.449,0,3.51,3.51,0,0,0,.891-.557l.446-.279.947-.669a3.844,3.844,0,0,0,1.727-2.4v-.446a.779.779,0,0,0,0-.334h0a5.574,5.574,0,0,0,.446-.613,5.851,5.851,0,0,1,1.17-1.337h1.783a7.239,7.239,0,0,0,.724,1.671,3.231,3.231,0,0,0,2.451,1.671h2.117a2.618,2.618,0,0,0,2.674-2.006,3.119,3.119,0,0,0,0-1.226v-.446l.39-.5.334-.446.613-.557h1.838v.446a10.358,10.358,0,0,0,1.5.613h3.231a2.619,2.619,0,0,0,2.006-.78h0a2.673,2.673,0,0,0,.836.557h.39a5.966,5.966,0,0,0,0,1.17v.78a.948.948,0,0,1,0,.39v.446h0l-.724,1a5.573,5.573,0,0,0-.5,1.783,9.414,9.414,0,0,0,0,3.733,11.7,11.7,0,0,0,.334,1.337v.891a1.893,1.893,0,0,0,0,.557h0a1.671,1.671,0,0,0,0,.669.983.983,0,0,1-.39.947.781.781,0,0,1,0,.39,5.122,5.122,0,0,0-.334,1.226v.557a2.953,2.953,0,0,0,0,.836,4.679,4.679,0,0,0-.39,1h0v.669a6.8,6.8,0,0,1-.39.947,4.846,4.846,0,0,1-.836,1.337,8.8,8.8,0,0,0-2.006,2.73,3.287,3.287,0,0,0-.446,1.894,2.34,2.34,0,0,0,.613,1.727h0v.39h0a1.506,1.506,0,0,1,0,.5V195.7a1.782,1.782,0,0,1,0,.446,2.729,2.729,0,0,0,0,.836V198.2a3.286,3.286,0,0,0,0,.724v.446a2.392,2.392,0,0,0,0,.669,1.059,1.059,0,0,0,0,.446,2.061,2.061,0,0,0,.5,1.783h0l.557.669-.334.334a4.234,4.234,0,0,0-.78,2.4v4.568a9.909,9.909,0,0,0,0,1.727V215.7a7.3,7.3,0,0,0,.39,2.73h0l.39,1h0a1.724,1.724,0,0,0,0,.446v.613h0a2.451,2.451,0,0,0,.39,1.393A3.566,3.566,0,0,0,492.017,223a3.734,3.734,0,0,0,.78.5h.39l.39.279.557.446.78.557h.334a4.066,4.066,0,0,0,1.5.836h0a2.73,2.73,0,0,0,.446,1.95v.39l.279.669h0a3.119,3.119,0,0,0,.39,1.059v.39l.334.669a9.7,9.7,0,0,0,.947,1.839s.5.613.78.947v.334l.669.669h0a11.141,11.141,0,0,0,0,2.117,1.894,1.894,0,0,0,0,.557v1.783a6.311,6.311,0,0,0,0,.836v.5a.723.723,0,0,1,0,.334,6.133,6.133,0,0,0,0,1v1.114a2.175,2.175,0,0,0,0,.669v2.4a2.066,2.066,0,0,0,0,.5v.334l1.449,1.671h1.616a9.645,9.645,0,0,0-1.281,1.337v.39a5.571,5.571,0,0,0-1.114,2.006h0a5.183,5.183,0,0,0-.836,1.839h0v4.067a9.025,9.025,0,0,0,0,1.226v1.727a3.451,3.451,0,0,1,0,1h0a6.067,6.067,0,0,0-.557.947l-.557,1-.39.78v.446h-1l-1.281-.557a7.183,7.183,0,0,0-.891-.5h-.5a6.576,6.576,0,0,0-.891-2.117V261.6a.837.837,0,0,1,0-.334,3.955,3.955,0,0,0-.724-1.059,3.176,3.176,0,0,0-2.173-1,2.9,2.9,0,0,0-1.393.39,3.176,3.176,0,0,0-.947,1h-.891a2.4,2.4,0,0,0-.891,0h-.557a2.9,2.9,0,0,0-1.616.39,3.677,3.677,0,0,0-1.393,2.284,2.006,2.006,0,0,0,0,.5,3.677,3.677,0,0,0-3.008-1.56,4.011,4.011,0,0,0-1.894.5,3.064,3.064,0,0,0-1.56,2.674,4.234,4.234,0,0,0-2.006.891h-.5l-2.228-.836h-.446a7.189,7.189,0,0,1-.891-.5,6.918,6.918,0,0,0-1.114-.557h-.334a3.176,3.176,0,0,0-1.5-.334h-.724a5.015,5.015,0,0,0-1.393,0H463.6a11.864,11.864,0,0,0-2.173,1,2.618,2.618,0,0,0-2.451,1.337s0,0,0,.39a2.284,2.284,0,0,1,0,.5v.613h0l-.334.446a4.067,4.067,0,0,0-.5.724,3.287,3.287,0,0,0-2.006-1.114h-.5a3.618,3.618,0,0,0-.947,0h0a2.563,2.563,0,0,0-1.337-1.95,2.73,2.73,0,0,0-1.114,0,2.4,2.4,0,0,0-2.34,1.783h0a3.066,3.066,0,0,0-.78-.5h-.334a2.4,2.4,0,0,0-1.337-.446h-1.114a4.844,4.844,0,0,1-.5-.947,5.963,5.963,0,0,0-.39-1.059,3.393,3.393,0,0,1,0-.669,1.95,1.95,0,0,0-.279-.947v-.557a3.17,3.17,0,0,1,0-.78,15.324,15.324,0,0,0-.613-1.616,4.68,4.68,0,0,0-.947-1.5,2.563,2.563,0,0,0-1.894-.891h-.446a6.243,6.243,0,0,0-1.839.557,2.841,2.841,0,0,0-1.393,2.563l-.724.557-.669.557-.836.669a9.026,9.026,0,0,0-1.727,1.616l-.836.891-.5.334-.669.446a3.68,3.68,0,0,0-.891.669l-.5.334a3.12,3.12,0,0,0-.836.557l-.39.279-.669.334h0a3.455,3.455,0,0,0-.947.557h0a21.834,21.834,0,0,0-2.841.39h-8.134a.724.724,0,0,0-.446,0,2,2,0,0,0-.5-.446h0l-.669-.557a4.456,4.456,0,0,0-1-.78h-.669v-.947l-1.727-1.393v-.334a2.507,2.507,0,0,0-2.228-1.281,2.675,2.675,0,0,0-1.5.5,2.786,2.786,0,0,0-2.4-1.226h-2.563a3.621,3.621,0,0,0-1.058,0h0a2.841,2.841,0,0,0-2.4-1.337,5.234,5.234,0,0,0-1.114,0h0a2.674,2.674,0,0,0-2.34-1.281h-.724a1.839,1.839,0,0,0-.78.39l.39,2.173-.724-2.117h-.78a1.392,1.392,0,0,1-.669,0h-1.727a3.119,3.119,0,0,0-1.281,0,2.285,2.285,0,0,0-.724.446,3.622,3.622,0,0,0-1.393-.724h-.613a3.064,3.064,0,0,0-1.56.446,3.287,3.287,0,0,0-1.448-.78,3.621,3.621,0,0,0-2.173-.613h0a3.733,3.733,0,0,0-2.674-1.449h-1.5a3.12,3.12,0,0,0-1.281.557H373.8a3.51,3.51,0,0,0-2.507,1.894,1.618,1.618,0,0,0,0,.5h-.557a4.232,4.232,0,0,0-1,.5,3.008,3.008,0,0,0-1.226,1.337,2.675,2.675,0,0,0-1.059-.5H366.5a2.573,2.573,0,0,1-.39-.39,3.231,3.231,0,0,0-2.284-.836h-.446v2.228l-.446-2.228h-.557a3.577,3.577,0,0,1,0-.39,4.218,4.218,0,0,0-.669-1.671,8.414,8.414,0,0,1-.446-1.95,12.973,12.973,0,0,0-.279-1.56v-3.9a4.624,4.624,0,0,0-1.17-2.451l-.669-.78a2.674,2.674,0,0,0-3.566.112,3.957,3.957,0,0,0-1.281.279,2.06,2.06,0,0,0-.334-.557,2.953,2.953,0,0,0-2.284-1.059,4.291,4.291,0,0,0-1.56.334h-1.059l-1.783.39a4.345,4.345,0,0,0-2.4,2.507h0a3.4,3.4,0,0,0-.891.5h-.557l-.78.334h-.39l-1,.39a3.233,3.233,0,0,0-1.281,1.059h-1.114a3.455,3.455,0,0,0-1.838.446l-.557.39a12.865,12.865,0,0,1-1.727.891,8.409,8.409,0,0,0-1.226.613h-.836a2.619,2.619,0,0,0-.947,0h-.613a5.9,5.9,0,0,0-1.448.669l-.891.39h-.5l.334-.446a2.785,2.785,0,0,0,0-2.284h0a2.507,2.507,0,0,0,0-2.061,2.4,2.4,0,0,0-1.56-1.449h-.334V249.4h-.446l-.724-.39a2.285,2.285,0,0,0-1.059,0,4.958,4.958,0,0,0-1.671.334v0h-.669a5.574,5.574,0,0,1-.947,0h-1.059a3.731,3.731,0,0,0-1.337,0,2.619,2.619,0,0,0-2.284,1.17,2.73,2.73,0,0,0-2.786-2.284h-1.17a3.281,3.281,0,0,0,0-.446l-.39-.5v-.724h0a4.846,4.846,0,0,0-.947-1.56,2.061,2.061,0,0,0-1.56-.724h-1.449a1.838,1.838,0,0,0-.947,0h-1.839l-.446-.557-.446-.613v-.39l-.5-.613a2.674,2.674,0,0,0-2.34-1.337,1.894,1.894,0,0,0-1.226.334l-1,.39a2.228,2.228,0,0,1-.836,0h-2.284L294.3,240.1h-.39a2.731,2.731,0,0,0,0-1.059V237.2a3.956,3.956,0,0,0-.446-1.727v-.39a5.57,5.57,0,0,0,0-1v-3.677a4.9,4.9,0,0,0-1-2.9,6.24,6.24,0,0,0-1.17-.947l-1.671-.5-.613-.5h0l-.5-.446-.446-.5-.334-.39a7.354,7.354,0,0,0-1.56-1.839,4.234,4.234,0,0,0-.836-.947,2.451,2.451,0,0,0-1.616-.613H268.669a4.45,4.45,0,0,0,0-.613,6.518,6.518,0,0,0-.78-1.5,2.674,2.674,0,0,0-1.56-1.17,2.451,2.451,0,0,0-.836,0h-1.838a2.73,2.73,0,0,0-1.281-.334h-.334l-1.17-2.284h0a1.5,1.5,0,0,0,0-.669,1.272,1.272,0,0,0-.39-1.059,3.231,3.231,0,0,0-.947-1.56,2.841,2.841,0,0,0-1.671-.5h-2.006a3.175,3.175,0,0,0-3.231,2.006l-.724.78a6.686,6.686,0,0,0-1.226,1.281l-.39.557a4.568,4.568,0,0,0-.78.891h0a2.73,2.73,0,0,0-.724.669h-.724a2.9,2.9,0,0,0-2.451,1.059,2.452,2.452,0,0,0-.334.557h0a1.9,1.9,0,0,0-.446.5,15.484,15.484,0,0,0-1.727,2.841l-.334.557a6.186,6.186,0,0,0-.39.891,3.4,3.4,0,0,0-.836-.39h-.279a30.082,30.082,0,0,0-2.73-1.281l-1-.446a9.694,9.694,0,0,1-1.839-1l-.78-.5h-.39a6.294,6.294,0,0,0-1.5-.724h-1.671l-.947-.39h-.5l-1.226-.39h-1.337a4.182,4.182,0,0,0-1.281,0h-4.624a3.231,3.231,0,0,0-1.059,0h-.947a4.011,4.011,0,0,0-2.451.947,4.179,4.179,0,0,0-1.059,2.34l-.39.78a3.844,3.844,0,0,0-.446,2.563h-.613a3.231,3.231,0,0,0-2.006,1.282,4.4,4.4,0,0,0-.724,1.616v.334a7.35,7.35,0,0,0-.446,1.226h-1.114L209,231.575l.947-2.061h-.557l-.279-.613a2.064,2.064,0,0,0,0-.613,4.621,4.621,0,0,1,0-.836,4.393,4.393,0,0,0-.557-1.56A3.51,3.51,0,0,0,205.324,224h-.669v-.5a4.792,4.792,0,0,0-1.839-2.228,3.621,3.621,0,0,0-3.231-.78,4.459,4.459,0,0,0-1.448,0h-.39l-.947.334-1.226.5h-6.853a2,2,0,0,1-.557-.39l-.334-.334a2.619,2.619,0,0,0-.669-.891,2.674,2.674,0,0,0-1.95-.78,4.011,4.011,0,0,0-1.5.334h-6.8a3.956,3.956,0,0,0,0-1.114h0V217.2l-.334-1.17v-.5h0a4.625,4.625,0,0,0,0-.836,1.226,1.226,0,0,1,0-.557,5.18,5.18,0,0,0-.39-1.783,2.4,2.4,0,0,0-1.059-1.281V209.9a3.454,3.454,0,0,0,0-1.449,6.631,6.631,0,0,0-1.337-1.894,4.4,4.4,0,0,0-.836-.669h0a2.4,2.4,0,0,0-1.616-.557h-.446a7.968,7.968,0,0,0-2.284,0l-2.061.669-1.56.613-1.839.669-1.281.446a17.677,17.677,0,0,1-2.284.669,12.477,12.477,0,0,0-2.563.78h0a4.625,4.625,0,0,0-1.17-1.17,2.062,2.062,0,0,0-.78-.39l-.5-.334-.446-.334h0a3.454,3.454,0,0,0-1.059-.669,3.285,3.285,0,0,0-.613-.5h-.5a4.624,4.624,0,0,0-1.059-.836l-.613-.334-2.618-.836-1-.613a3.954,3.954,0,0,0-1.114-.613h-1.56a2.341,2.341,0,0,1-.836,0,1.114,1.114,0,0,1-.669-.446,5.572,5.572,0,0,0-.78-1.114l-1.894,1.17,1.727-1.449-.446-.613a5.571,5.571,0,0,0-.891-.78,2.228,2.228,0,0,0-1.616-.669h-1.059a9.578,9.578,0,0,0-1.783,0h-.724l-.613-.613a4.29,4.29,0,0,0-1.894-1.114,3.788,3.788,0,0,0-1.393-.39h-5.571a3.4,3.4,0,0,0-1.894.446,2.785,2.785,0,0,0-1.281,1.337l-.613.724-.613.613-.557.724a2.507,2.507,0,0,0-.39.39,2.9,2.9,0,0,0-2.618-1.5h-.78l-.334-.557-.334-.5-.279-.39v-.279a4.345,4.345,0,0,0-.836-1.226,2.786,2.786,0,0,0-1.616-.668h-.613l-.836-.39-.947-.279h-.279l-.947-.39a7.633,7.633,0,0,1-2.061-.836l-1.838-1.114h-.947a6.025,6.025,0,0,0-1-.39h-.446l-.836-.5-.836-.334h-.78l-.724-.446-1-1.616h-.78v-.279a3.4,3.4,0,0,0-1.17-2.563,2.173,2.173,0,0,0-1.281-.39l-.78-.446-1.226-.557h-.613l-1.671-.724h-.557a3.231,3.231,0,0,0-1.727-.613,2.061,2.061,0,0,0-.836,0,2.117,2.117,0,0,0-.836.5l-.39-.557a7.3,7.3,0,0,1-1.059-1.449,16.712,16.712,0,0,0-1.839-3.008,15.552,15.552,0,0,1-1.059-1.56,10.417,10.417,0,0,0-.891-1.56h0a4.735,4.735,0,0,0,0-1.226,4.177,4.177,0,0,0-.39-1,2.34,2.34,0,0,0-1.5-1.56h0a1.95,1.95,0,0,0-.724-.446h0a14.547,14.547,0,0,0-1.56-.947l-.613-.334-.669-.39-.669-.334h-.279a4.29,4.29,0,0,0-1-.557h-.5l-.613-.446h0a1.058,1.058,0,0,1,0-.446,2.841,2.841,0,0,0-1.226-2.006l-1.393-2.228a3.121,3.121,0,0,0-.724-.5h0a2.785,2.785,0,0,0-1.17-.669h-.836a4.234,4.234,0,0,0-2.228.78H64.262l-.279-.39v-.334a5.071,5.071,0,0,0-.669-.947,3.009,3.009,0,0,0-1.838-1.448h-1.17a2.117,2.117,0,0,0-1.337.446H56.407v-.39a3.4,3.4,0,0,0-1.671-1l-1.56-.557h-.557a5.571,5.571,0,0,0-1.727-.613h-.613a8.3,8.3,0,0,0-1.838,0c-.39-.5-.836-.947-1.226-1.5a9.694,9.694,0,0,0-1.783-2.117l-.334-.279a3.4,3.4,0,0,0-.669-.5,7.132,7.132,0,0,0-1.56-.836h-.39a1.837,1.837,0,0,0-.557-.334,6.854,6.854,0,0,0-1.337-.5,6.187,6.187,0,0,0-1.5-.334h-.557a4.181,4.181,0,0,0-1.281,0,4.958,4.958,0,0,0-1.727.334,6.962,6.962,0,0,0-1.5.836,3.343,3.343,0,0,0-1.337,2.841v.891h-2.9l-1.114-.39H24.6l-.669-3.064a6.909,6.909,0,0,0-1.838-1.393,3.176,3.176,0,0,1-.78-.446,3.287,3.287,0,0,0-.947-.724,2.953,2.953,0,0,1,0-.78,7.577,7.577,0,0,0-.613-1.616A2.451,2.451,0,0,0,17.687,147H14.678l-.39-.334a10.193,10.193,0,0,0-1.616-1.281,3.677,3.677,0,0,0-2.507-1.059,3.454,3.454,0,0,0-1.616.39H7.937v-1.449a2.507,2.507,0,0,0,0-.891s0,0,0-.39v-.334a3.12,3.12,0,0,1,0-.446l.669-.557,1.059-1a5.961,5.961,0,0,1,.5-.891l.891-.836.446-.39,1.281-.613a3.956,3.956,0,0,0,1.671-2.117,13.42,13.42,0,0,1,.39-2.061v-.836a5.571,5.571,0,0,0,0-.78v-.947a1.393,1.393,0,0,1,0-.557,2.953,2.953,0,0,1,1.059-1.17,7.8,7.8,0,0,0,1.226-.947l.446-.39a6.63,6.63,0,0,0,1.114-1.059l.446-.446a2.618,2.618,0,0,0,.669-1.783,6.017,6.017,0,0,0,0-1.839l-.39-.836a1.616,1.616,0,0,0,.669-.947,3.621,3.621,0,0,0,0-1.449v-4.123a1.616,1.616,0,0,1,0-.5v-.557a2.618,2.618,0,0,0,0-2.117,3.12,3.12,0,0,0-.78-1,3.065,3.065,0,0,0-.613-.836h0l-.5-.836v-1.56a2.228,2.228,0,0,0-1.17-1.95l-.446-.334-.5-.39h0a4.235,4.235,0,0,0,1.281-1.059,2.953,2.953,0,0,0,1.337-2.618h.669a2.117,2.117,0,0,0,1.95-1.616,2.284,2.284,0,0,0,0-2.006,1.56,1.56,0,0,1,0-.5v-.891l.39-.39.613-.446.557-.39a6.351,6.351,0,0,0,2.4-2.284s0-.39,0-.78l.279-.557V89.343a2.006,2.006,0,0,1,0-.5,3.733,3.733,0,0,0,1.838-2.061,3.454,3.454,0,0,0-.947-2.173v-.334h0a6.685,6.685,0,0,0-.613-.947h0a3.064,3.064,0,0,1,.5-.78h0l.334-.557a12.426,12.426,0,0,0,2.173-.724h.947a2.9,2.9,0,0,0,.724-.334,4.568,4.568,0,0,0,1.671-.78,3.121,3.121,0,0,0,.836-.557l.446-.334h1.226l.724-.334a3.9,3.9,0,0,0,1.059-1.114,4.847,4.847,0,0,0,.891-1.5v-.334a14.206,14.206,0,0,0,.669-3.12v-.334a7.462,7.462,0,0,0,.39-1h0a7.689,7.689,0,0,0,.39-1.783h.39A3.621,3.621,0,0,0,41.81,68.4,2.841,2.841,0,0,0,42.367,67a3.12,3.12,0,0,0,0-.669V65.108l.557-.557h0a2.841,2.841,0,0,0,1-.5,2.4,2.4,0,0,0,.836-1.838,7.131,7.131,0,0,1,.334-1.95V59.7a6.8,6.8,0,0,0,.39-.947h.669A4.457,4.457,0,0,0,49.5,56.64v-.39l.39-.724h0l.39-.5a4.791,4.791,0,0,0,.613-1.17h0A7.133,7.133,0,0,0,51.56,52.8l.5-.5H52.4a5.18,5.18,0,0,0,1.616,0,3.4,3.4,0,0,0,2.451-1.839,2.284,2.284,0,0,0,.279-.947l.613.446h.334l.724.669a3.844,3.844,0,0,1,.724.613,7.242,7.242,0,0,0,1.894,1.17l.446.279a5.071,5.071,0,0,0,.891.613,5.014,5.014,0,0,1,1.059.891l2.451-.836h0a18.772,18.772,0,0,0,1.059,1.783v.279a4.791,4.791,0,0,0,1.281,1.671H68.5a3.4,3.4,0,0,0,1.114.836,6.518,6.518,0,0,0,2.006.724h1.059a4.4,4.4,0,0,0,3.677-1.616,5.571,5.571,0,0,0,1.56-3.621V52.8a5.571,5.571,0,0,0-.279-1.616l.557-.279a6.574,6.574,0,0,0,2.953-1,9.582,9.582,0,0,0,1.727-1.337,6.184,6.184,0,0,0,1.059-1.783v-.334a1.671,1.671,0,0,0,.279-1.059,1.783,1.783,0,0,0,.279-.836,5.57,5.57,0,0,0,0-1.337v-.334a15.209,15.209,0,0,0-.334-2.507,6.9,6.9,0,0,1,0-.891.947.947,0,0,0,0-.39,2.509,2.509,0,0,0,0-.613h0l.334-.39.446-.5h4.29a2.117,2.117,0,0,0,1.727-.78,4.512,4.512,0,0,1,1.114-.446h.724l1.281-.39h1.727m0-2.228h-.947a8.635,8.635,0,0,0-1.281.39,7.3,7.3,0,0,0-1.56.5,6.463,6.463,0,0,0-2.786,1.337H84.708a.724.724,0,0,0-.557,0l-.669.669a9.529,9.529,0,0,0-1,1.114c-.279.279-.836.557-.891,1.059a4.346,4.346,0,0,0,0,1.226v.39a2.451,2.451,0,0,0,0,.557,20.611,20.611,0,0,1,.5,3.064,9.807,9.807,0,0,1,0,1.281V46a2.508,2.508,0,0,1,0,.613,5.237,5.237,0,0,1-.836,1.56,5.124,5.124,0,0,1-1.226.947,4.4,4.4,0,0,1-2.061.78h0c-.39,0-.669.279-1.059.334h-.947c-.446,0-1.337.39-1.114,1a3.342,3.342,0,0,0,.334.613,6.8,6.8,0,0,1,.39.947,3.231,3.231,0,0,1,0,1.059v-.5A4.29,4.29,0,0,1,74.346,55.8a2.4,2.4,0,0,1-1.783.557h-.836a4.233,4.233,0,0,1-1.17-.446l-.613-.39L69.5,55.08a4.9,4.9,0,0,1-1-1.393,15.318,15.318,0,0,1-.947-1.616c-.279-.5-.836-.78-1.226-1.17a10.755,10.755,0,0,0-1.56-1.226c-.5,0-.891-.669-1.337-.891a5.961,5.961,0,0,1-1.393-.891l-1.56-1.281a8.693,8.693,0,0,1-1.114-.891,2.217,2.217,0,0,0-.557-.669l-.836-.557c-.334,0-.724-.669-1.17-.669h-.446a8.969,8.969,0,0,1-.334,2.451,5.57,5.57,0,0,1,0,1.337c0,.39-.557.5-.947.613a7.91,7.91,0,0,1-1.114,0H52.73c-.446,0-.557.446-.78.724s-.557.557-.78.891a6.629,6.629,0,0,1-.5.836l-.39.5a5.572,5.572,0,0,1-.557,1.17,6.3,6.3,0,0,0-.669,1l-.613,1.058c-.39.78-1.337.891-2.173,1.059s-1.616,0-1.839,1.059a7.965,7.965,0,0,1-.446,1.226,4.735,4.735,0,0,0-.39,1.17,7.911,7.911,0,0,0-.446,2.507h0c-.5,0-1,.557-1.281.836a3.845,3.845,0,0,0-1,1.337v2.061a1.5,1.5,0,0,1,0,.669c0,.279-.947.39-1.337.446H38.467c-.891,0-1.059,1.337-1.059,2.117a7.132,7.132,0,0,1-.39,1.56,10.03,10.03,0,0,1-.446,1.17,8.915,8.915,0,0,1-.557,1.281,6.128,6.128,0,0,1-.836,1.448,2.719,2.719,0,0,1-.613.724h-.5l-1.114.557-.891.724L31,76.975a2.562,2.562,0,0,1-.891.39H29.5l-1.059.279a9.694,9.694,0,0,1-2.841.724,7.857,7.857,0,0,1-.724,1.337l-.836,1.17a9.8,9.8,0,0,0-.5,1.114c-.334.557,0,.724.334,1.17a8.915,8.915,0,0,1,1,1.393,3.4,3.4,0,0,1,.39.557s.446.446.446.669-.39.669-.557.947a4.233,4.233,0,0,0-.446,1.17,1.751,1.751,0,0,1-.446,1.393v1.058a21.169,21.169,0,0,1-2.173,2.061l-.557.39-.613.557a1.5,1.5,0,0,0-.557,1.17v.947a12.592,12.592,0,0,0,0,1.449v.39h0a8.081,8.081,0,0,1-1.616,0H16.907c-.334,0,0,.39,0,.669a12.2,12.2,0,0,0,0,2.006.724.724,0,0,1-.39.78,2.341,2.341,0,0,1-.78.5,4.625,4.625,0,0,1-.724.39H14.4a2.006,2.006,0,0,0-.334,1.393,3.12,3.12,0,0,0,.891,1.616l.724.557a4.624,4.624,0,0,0,.836.613h0v1.839c0,.613.5.947.724,1.448a2.785,2.785,0,0,0,.557.78.762.762,0,0,0,.39.669.9.9,0,0,1,.557.557c.111.223,0,.5,0,.78a6.184,6.184,0,0,0,0,1.393v4.346a3.176,3.176,0,0,1,0,.724H17.687a2,2,0,0,1-1.114-.446c-.39-.279-.39-.78-.836-1h-.39v.5a1.226,1.226,0,0,0,0,.446l.5.5c.669.724,1.5,1.226,1.894,2.173l.39.836a5.572,5.572,0,0,1,0,1.337h0a8.634,8.634,0,0,1-1.281,1.17A15.316,15.316,0,0,1,15.4,125.11a4.9,4.9,0,0,0-2.006,2.34,9.415,9.415,0,0,0,0,1.337,2.062,2.062,0,0,1,0,.5v.78a6.206,6.206,0,0,1-.5,2.674,2.519,2.519,0,0,1-1.059,1.114l-1.671,2.006c-.446.334-.724.78-1.114,1.114a6.462,6.462,0,0,0-1.114,1l-1.671,1.5a3.064,3.064,0,0,0-.78,1.281,3.12,3.12,0,0,0-.334,1.17,3.009,3.009,0,0,0,0,1.226h0a6.573,6.573,0,0,0,0,1.114,3.1,3.1,0,0,0,.279,1.56c.279.5.446,1,.947,1.114h2.4a2.618,2.618,0,0,1,1.393-.39h0c.5,0,.836.446,1.226.724l1.337,1.17a2.284,2.284,0,0,0,1.059.613,3.51,3.51,0,0,0,1.059,0h2.117l.39.334a11.142,11.142,0,0,1,.446,1.226,3.9,3.9,0,0,0,.613,1.5c.334.5.836.669,1.226,1.058a4.568,4.568,0,0,0,1.226,1.059,15.542,15.542,0,0,1,2.173,1.727l.669.39.669.446a2.84,2.84,0,0,0,.947,0H27.6l1.059.334,1.337.334.891.334a1.616,1.616,0,0,1,1.56,1.393,6.519,6.519,0,0,1,.5,1.783c0,.446,0,.836.669.836h1.5a.334.334,0,0,0,.334,0s0-.669,0-.836a5.572,5.572,0,0,0,0-1,13.317,13.317,0,0,1-.5-2.507v-1.727a1,1,0,0,1,.5-1.059,3.286,3.286,0,0,1,.947-.557H37.3l.724-.5a9.75,9.75,0,0,1,1.839.334l1.059.39,1.114.557a5.573,5.573,0,0,1,1,.5l.557.39.5.5a6.3,6.3,0,0,1,1.337,1.616,23.122,23.122,0,0,0,1.5,1.783c.279,0,.279.557.724.613h.724a13.593,13.593,0,0,1,2.173.334,11.643,11.643,0,0,1,1.95.724,5.571,5.571,0,0,1,1,.334c.334,0,.446.334.613.669a6.965,6.965,0,0,1,.836,1.56h3.677a3.955,3.955,0,0,0,1.17,0h.5a7.525,7.525,0,0,1,.5.613,3.566,3.566,0,0,1,.557.724c0,.446.613.78.891,1.281s0,.836.669.836h0a2.117,2.117,0,0,0,.724,0,3.23,3.23,0,0,0,.78,0h.891a3.4,3.4,0,0,1,.724,0,5.575,5.575,0,0,0,1-.557,2.062,2.062,0,0,1,1.059-.5h0c.279,0,.334.279.557.446H69l.334.279.724.557.279.5a8.635,8.635,0,0,0,.334,1.281c0,.39,0,.724.39.891a3.844,3.844,0,0,1,.724,0l.613.39a3.339,3.339,0,0,1,1.337.669c.446.279,0,0,.5.334h.279a3.173,3.173,0,0,1,.724.446l1.17.613a6.685,6.685,0,0,1,1.337.836l.836.446s.334.39.613.39h0c0,.334.334.613.39.891a8.191,8.191,0,0,1,0,1.17,1.337,1.337,0,0,0,.5.947,8.633,8.633,0,0,1,.669,1.226,12.2,12.2,0,0,0,1.393,2.061,13.538,13.538,0,0,1,1.449,2.451,9.136,9.136,0,0,0,1.449,2.061,7.357,7.357,0,0,1,.669,1.114,2.674,2.674,0,0,1,.5.613,3.566,3.566,0,0,0,0,.39h1.894c.446,0,.446,0,.446-.557a3.732,3.732,0,0,1,0-1.114h0a5.046,5.046,0,0,0,.613.334l.836.334,1.5.669a3.975,3.975,0,0,1,1.727.78l.78.446a1.393,1.393,0,0,0,.78.334h0a1.449,1.449,0,0,1,.39.947v1.337c0,.446,1.059.947,1.616,1.226l1.226.5a6.8,6.8,0,0,0,1.059.668,3.812,3.812,0,0,1,1.337.557c.446.223.891.557,1.393.78h.78l.613.334.613.279a1.338,1.338,0,0,1,.613.334,10.529,10.529,0,0,0,2.507.947l1.059.446.891.279a8.409,8.409,0,0,1,1,.5,3.678,3.678,0,0,0,1.114.334h0c.279.334.446.836.724,1.17l.613.891c.39.613.669,1.337,1.393,1.616a3.565,3.565,0,0,0,1,.334h1c.78,0,.724.724.724,1.337v.39H117.8a8.364,8.364,0,0,0,1.226,0h.39c.111,0,0-.334.334-.557a4.513,4.513,0,0,0,.557-.5,5.242,5.242,0,0,1,.5-.669l1.226-1.337.5-.669a.613.613,0,0,1,.279-.446,2.507,2.507,0,0,1,.891,0h5.571a3.565,3.565,0,0,1,1,.334,2.061,2.061,0,0,1,.891.5,4.067,4.067,0,0,1,.78.891c0,.334,0,.446.557.446h2.006a5.571,5.571,0,0,1,1.337,0h1.059a3.234,3.234,0,0,1,.669.557.683.683,0,0,0,.446.613l.724,1a3.51,3.51,0,0,0,1.838,1.5,4.792,4.792,0,0,0,1.281.334,4.621,4.621,0,0,1,1.226,0c.334,0,.557.334.836.446l1.059.724.947.5a5.569,5.569,0,0,1,.891.78h.557a3.956,3.956,0,0,1,.5.39,9.084,9.084,0,0,1,.947.613l.947.724a.72.72,0,0,1,.557.334c.223.334.39,0,.557,0a3.455,3.455,0,0,1,.78.78s.5.836.947.891h1.727a16.713,16.713,0,0,1,2.229-.669c1.281,0,2.507-.78,3.788-1.114s2.34-.947,3.51-1.337a16.2,16.2,0,0,1,2.173-.669,4.011,4.011,0,0,1,1.393,0H168l1.059.78a4.736,4.736,0,0,1,2.674.39,4.18,4.18,0,0,1,0,.836v.947a4.732,4.732,0,0,0,0,.891,1.5,1.5,0,0,0,.39.446s0,.334,0,.5h.39c.279,0,.279,0,.39.446a2.953,2.953,0,0,1,0,1.226,5.572,5.572,0,0,0,0,.947l.279.947.5,1.671a1.675,1.675,0,0,0,.279,1.114c.279.39,0,.557,0,.836v1.783h.724c0,.39,0,.446.334.446h5.07a6.852,6.852,0,0,0,1.5,0l1.894-.446a5.238,5.238,0,0,1,.891,0,.613.613,0,0,1,.446,0,3.9,3.9,0,0,1,.334.5,3.9,3.9,0,0,0,.446.557,3.844,3.844,0,0,0,1.226.891,3.677,3.677,0,0,0,1.894.334h5.237a5.577,5.577,0,0,0,1.393,0l1.281-.5,1.226-.39a1.5,1.5,0,0,1,.669,0h.557a2.117,2.117,0,0,1,.947,1.17,2.286,2.286,0,0,1,.279.5v.669a.821.821,0,0,0,.724.724h1.894a1.226,1.226,0,0,1,2.228-.334c.334.724.446,1.56.78,2.34a4.627,4.627,0,0,0,1.337,2.173h.613a1.449,1.449,0,0,0,.5,0l.947.334H211.4a1.727,1.727,0,0,0,.947-.724s.5-.557.5-.836h0s.279-.78.39-1.114a5.57,5.57,0,0,1,.446-1.281c0-.334.669-.334,1-.446a4.458,4.458,0,0,1,1.17,0h1.114c.5,0,.613,0,.613-.724a1.449,1.449,0,0,0,0-.836l-.39-.5-.334-.446a2.618,2.618,0,0,1,0-.947,5.075,5.075,0,0,0,.39-.78c.334-.557,0-1.226.669-1.727a1.449,1.449,0,0,1,1.059-.334h6.685a1.5,1.5,0,0,1,.724,0h1.448a10.04,10.04,0,0,1,1.17.446l1.059.39.836.334h1l1,.446c.334.279.78.446,1.114.724a17.316,17.316,0,0,0,2.228,1.226c1.17.557,2.4,1,3.566,1.616l.5.279H241.7c.39,0,.947.836,1.448.836h.613a5.906,5.906,0,0,1,.5-2.953,21.5,21.5,0,0,1,1.783-3.12,5.233,5.233,0,0,0,.557-.557s0-.334,0-.446.446,0,.724,0h1.393s.334-.446.5-.613l.446-.557.613-.557a5.239,5.239,0,0,0,.5-.669,6,6,0,0,0,.613-.613l.446-.669c.669-.947,1.783-1.5,2.228-2.618s.669-.557,1.17-.557h1.727a1,1,0,0,1,0,.5l.446,1.17v1.17c0,.334.836.446,1.17.669l1.226.613a2.117,2.117,0,0,0,1.17,0h0a1.616,1.616,0,0,0,.724,0l.613.279a3.066,3.066,0,0,0,.947,0h.836l.446.39a6.3,6.3,0,0,1,.613,1.226l1.281,1.894v.557c0,.39.613.334,1,.446h3.287a11.84,11.84,0,0,1,1.393,0h10.808c.39,0,.613.78,1,1.058a5.574,5.574,0,0,1,.891,1.059,5.57,5.57,0,0,0,1,1.226,9.518,9.518,0,0,0,1.114,1l1.56,1.226a5.567,5.567,0,0,1,.891.669c.557.613.446,1.56.613,2.284a15.051,15.051,0,0,1,0,2.284,3.85,3.85,0,0,0,.279.724v.78a6.522,6.522,0,0,1,.334,1.114,3.676,3.676,0,0,1,.334,1.114v1.5a.947.947,0,0,1,0,.613,2.285,2.285,0,0,1,0,.446,1.162,1.162,0,0,0-.334.613c0,.279.613.836.947,1l1.059.557a16.1,16.1,0,0,0,2.4,1.226h1a4.347,4.347,0,0,0,1.393.39h.39a3.51,3.51,0,0,0,1.671-.39l.724-.279h.557c.279,0,.334,0,.5.446l.334.446a3.063,3.063,0,0,0,.5.78l.5.613a7.636,7.636,0,0,0,1.059,1.226.891.891,0,0,0,.5,0h4.568a5.124,5.124,0,0,1,.724,1.337,7.751,7.751,0,0,0,.334.724l.5.669a1.925,1.925,0,0,0,.891,1.226,3.621,3.621,0,0,0,1.281.5,4.347,4.347,0,0,0,1.17,0c.724,0,.669.39.669,1a2.285,2.285,0,0,1,0,.613s0,.334,0,.613.557.557.891.669a12.982,12.982,0,0,0,1.393,1.337h0a.39.39,0,0,0,.334,0,3.74,3.74,0,0,1,.39-.613,7.972,7.972,0,0,0,.78-1.114.668.668,0,0,1,.5,0,.836.836,0,0,1,.5,0h3.788a6.352,6.352,0,0,1,1.393-.334h0l.724.334a4.735,4.735,0,0,0,1.059.78c.279,0,.557,0,.334.557s-.39.446-.446.836a3.4,3.4,0,0,0,0,.78s.5.39,0,.724-.724.39-1.059.613-.334,1.17-.334,1.671,0,.39.39.613l.557.334a4.075,4.075,0,0,0,.5.5h1.839a2.117,2.117,0,0,0,1.17,0l.891-.446a3.009,3.009,0,0,1,.724-.39h0a1,1,0,0,1,.557,0s0,.334.557.334h0a1.392,1.392,0,0,0,.724-.5,1.9,1.9,0,0,1,.613-.39,9.3,9.3,0,0,1,1.281-.669,13.038,13.038,0,0,0,2.73-1.5,1.392,1.392,0,0,1,.669,0h.669a2.953,2.953,0,0,0,1.393-.446l.891-.724s0-.39.5-.5.947,0,1.337-.5l1.337-.5a3.674,3.674,0,0,1,1.17-.613h0c.39-.557.947-.78,1.17-1.393a1.9,1.9,0,0,1,.891-1.17c.947-.334,1.95,0,2.9-.613a1.839,1.839,0,0,1,.78,0,.613.613,0,0,1,.557,0v.613l.39.613v.669h0a.835.835,0,0,0,.39,0,7.294,7.294,0,0,0,1.17-.446,2.4,2.4,0,0,1,.724,0h.446a7.743,7.743,0,0,0,.836,1.059,2.284,2.284,0,0,1,.613,1.337l.334,1.393a5.216,5.216,0,0,0,.446,2.563,25.239,25.239,0,0,0,.891,3.956,5.5,5.5,0,0,0,.557,1.5c.167.5,0,.947.334,1.337s0,0,.557,0h2.953a.724.724,0,0,1,.613,0,.947.947,0,0,1,.446.724c0,.279,0,.557.39.613h0c.446,0,.836-.39,1.226-.39h0c.446,0,.557.724.557,1.114v.669c0,.334,0,.39.279.446h0a2.284,2.284,0,0,0,1.058-.279,2.506,2.506,0,0,0,.669-.334.789.789,0,0,1,.334-.613,5.57,5.57,0,0,0,.334-1c0-.557,0-.78.446-1.114l1.114-.557a6.963,6.963,0,0,0,1.56-.836s.334,0,.39-.5a2.229,2.229,0,0,1,0-.613c0-.446.669-.557,1.058-.669h1.114a2.283,2.283,0,0,0,.836-.39h1.838c.39,0,.891.557,1.114.836s0,.613.669.613h1.281a1.393,1.393,0,0,1,1.059.5h0c.613,0,.947.724,1.281,1.059a1.115,1.115,0,0,0,.613,0,1.394,1.394,0,0,0,.724,0c.39,0,.669-.613,1.114-.613h0a1.447,1.447,0,0,1,.613.39,1.839,1.839,0,0,0,.724.39c.334,0,.5.334.836.334h0c.5,0,.557-.78,1-.947h4.68l.613-.334h0c.334,0,.446.334.669.613a2.6,2.6,0,0,0,.5.557h2.284a.637.637,0,0,1,.557.39,2.73,2.73,0,0,0,.836.947,2.174,2.174,0,0,0,.836,0h.5a2.4,2.4,0,0,0,.891,0,3.23,3.23,0,0,0,.78,0h5.293a.669.669,0,0,1,.613.279,2.845,2.845,0,0,1,0,.724c0,.39.334.446.669.446h.39a3.62,3.62,0,0,0,1.337-.334,2.491,2.491,0,0,1,.78-.39.39.39,0,0,1,.334,0l.78,1.226a4.623,4.623,0,0,0,.446.669,1.014,1.014,0,0,0,.5.836c.5.279.78,0,1.226.446a2.4,2.4,0,0,1,.557.5l.557.39a2.787,2.787,0,0,0,.668.446,3.047,3.047,0,0,0,.557.446h1.17a7.631,7.631,0,0,0,1.56,0h3.287a10.282,10.282,0,0,0,1.281,0h1a17.779,17.779,0,0,1,2.953-.334l.836-.39a3.173,3.173,0,0,1,.724-.446l.947-.5c.446,0,.891-.669,1.393-.891a6.074,6.074,0,0,0,.947-.724l.724-.446,1.226-.836,1.17-1.226a5.127,5.127,0,0,1,1.226-1.226l1.616-1.226a1.658,1.658,0,0,1,.446-.39h.669c.5,0,.446-.557.446-1.059s0-1,.334-1.281a2.062,2.062,0,0,1,1,0h.334a6.351,6.351,0,0,1,.557,1.059c.334.724.446,1.5.724,2.173l.334.669a2.112,2.112,0,0,1,0,.557c0,.613.5,1.226.669,1.839a5.571,5.571,0,0,0,1.393,2.228h2.173a2.174,2.174,0,0,0,.613.334l.613.446a2.619,2.619,0,0,0,1.448.446h1.337c.334,0,.557,0,.669-.279a.724.724,0,0,0,0-.5,2.505,2.505,0,0,0,.334-.669v-.5h0v.613c0,.167,0,1.281.724,1.56h2.507a1.058,1.058,0,0,1,.891.836c0,.39,0,.78.557,1a2.9,2.9,0,0,0,1,0h1.449v-1.17a2.673,2.673,0,0,1,0-.668,6.623,6.623,0,0,0,.446-.669c.111-.223.446-.613.613-.947s0-.446,0-.613a7.732,7.732,0,0,0,.334-.724h1.448a6.37,6.37,0,0,0,1.671-.5h1.894a13.032,13.032,0,0,1,1.449,0H467.5a5.072,5.072,0,0,1,1.226.613l1.449.78a12.252,12.252,0,0,0,1.448.836c.334,0,.613.39.947.39a.39.39,0,0,0,.334,0c.334,0,.5-.669.836-.947a3.509,3.509,0,0,1,1.56-.557H476.7c.111,0,0-.446,0-.613a3.788,3.788,0,0,0,1.448-1.839.836.836,0,0,1,.446-.947,1.505,1.505,0,0,1,.78,0,1.615,1.615,0,0,1,1.337.78,2.688,2.688,0,0,1,.446.669,1.857,1.857,0,0,1,0,.557h.5a.836.836,0,0,0,.5,0h1.114c.446,0,.669-.613.947-.947h0v-.891a1.4,1.4,0,0,1,.334-1.059,2.284,2.284,0,0,1,.39-.836h3.621c.446,0,.557,0,.78-.5s0-.78.5-.947h0a.947.947,0,0,1,.613.334,1.893,1.893,0,0,1,.334.669,4.62,4.62,0,0,1,.446.669,5.571,5.571,0,0,1,.669,1.56.948.948,0,0,0,0,.669h.39l.279.334c.5.334,1.17.557,1.671.891a8.915,8.915,0,0,0,1.671.724,1.626,1.626,0,0,1,1.393.5h.5a.49.49,0,0,0,.39.446h0a.39.39,0,0,0,.334,0,4.176,4.176,0,0,1,.334-.724,3.343,3.343,0,0,0,.446-.891,1.616,1.616,0,0,1,1.114.056v-.78a.922.922,0,0,1,.446-.78l.5-.836a2.105,2.105,0,0,0,.446-.5,2.675,2.675,0,0,0,0-.669,6.074,6.074,0,0,0,0-1.393v-1.727a9.843,9.843,0,0,1,0-1.281,3.786,3.786,0,0,0,0-.78v-.836a9.843,9.843,0,0,1,0-1.281,2.511,2.511,0,0,1,.279-1.393,11.134,11.134,0,0,1,.5-1.226,3.789,3.789,0,0,1,.669-1.337,10.366,10.366,0,0,1,1.281-1.449,1.783,1.783,0,0,0,.557-.557l.5-.613v-.78a1.059,1.059,0,0,0,0-.724v-2.451a2.506,2.506,0,0,1,0-.613v-1.894a7.581,7.581,0,0,0,0-1.114,5.568,5.568,0,0,1,0-.947q-.03-.612,0-1.226s0-.446,0-.669a3.794,3.794,0,0,0,0-.78,6.071,6.071,0,0,1,0-1.727V235.2a6.969,6.969,0,0,1-.446-.669,5.241,5.241,0,0,1-.557-.557l-1-1.226a6.63,6.63,0,0,1-.724-1.393,8.416,8.416,0,0,0-.613-1.226,2.956,2.956,0,0,1,0-.669,1.226,1.226,0,0,0,0-.446,8.186,8.186,0,0,0-.557-1.226v-.836h0a.947.947,0,0,0,0-.557,2.563,2.563,0,0,0-1-.724,1.225,1.225,0,0,1-.613,0,.891.891,0,0,0-.446,0,3.566,3.566,0,0,1-1-.557c-.334-.334-.78-.5-1.17-.836l-1.059-.78-1.56-1.393-.5-.5v-.446a8.472,8.472,0,0,0-.334-1.114s0-.446,0-.613a1.952,1.952,0,0,0,0-.446l-.5-1.17a5.57,5.57,0,0,1,0-2.173v-3.12a7.185,7.185,0,0,1,0-1.56l-.334-1.616a5.576,5.576,0,0,0,0-.947,4.908,4.908,0,0,1,0-.891c0-.446,0-.891,0-1.393v-1.337c0-.334.891-.334,1.281-.446a5.991,5.991,0,0,0-1.727-3.621v-.5a2.5,2.5,0,0,1,0-.613s0-.39,0-.613v-1.838a12.547,12.547,0,0,0,0-1.449,8.2,8.2,0,0,0,0-1.17,4.516,4.516,0,0,0-.39-1.226,1.839,1.839,0,0,0-.39-.724v-.446a1.115,1.115,0,0,1,0-.836,8.855,8.855,0,0,1,1.5-2.061,6.24,6.24,0,0,0,1.449-2.117,3.587,3.587,0,0,1,.557-1.281v-.39a2.621,2.621,0,0,0,0-.5,1.119,1.119,0,0,1,.334-.947,10.534,10.534,0,0,0,.334-1,4.4,4.4,0,0,1,.334-1.226,7.309,7.309,0,0,1,.446-1.17q0-.5,0-1a1.783,1.783,0,0,0,0-.947v-.891a4.177,4.177,0,0,0,0-1.17,1.908,1.908,0,0,0-.279-1.226,8.079,8.079,0,0,1,0-2.841,4.627,4.627,0,0,1,.334-1.17,6.744,6.744,0,0,1,.78-1.114,1.449,1.449,0,0,0,0-1.059,9.021,9.021,0,0,0,0-1.226,6.582,6.582,0,0,0,0-1.114,8.233,8.233,0,0,1,0-1.059,4.239,4.239,0,0,0,0-.891,2.9,2.9,0,0,0-1-.836h-.5l-.446-.39a2.339,2.339,0,0,1-1-.78l-.334-.891a1.727,1.727,0,0,1-.279-.557s0-.334,0-.557h0s-.836.78-1.059,1a.891.891,0,0,0-.334.947,1.561,1.561,0,0,1,0,1,.613.613,0,0,1-.446,0h-2.73a9.794,9.794,0,0,1-1.114-.5,4.234,4.234,0,0,1-1.058-.669h0a9.473,9.473,0,0,0-1.226,0l-1.226.279a2.452,2.452,0,0,0-1.059.557l-.891.891a8.577,8.577,0,0,0-.947,1.058,3.232,3.232,0,0,0-.613,1.337v1.337c0,.446,0,0-.5,0h-1.839a1,1,0,0,1-.78-.613,15.763,15.763,0,0,1-.947-2.228c0-.669-1.393-.724-2.006-.724h-1.17l-1.17.279a5.572,5.572,0,0,0-2.229,2.228,12.853,12.853,0,0,0-.78,1.059v1.17a1.56,1.56,0,0,1-.669,1c-.334,0-.613.5-1,.724a2.174,2.174,0,0,0-.613.334.835.835,0,0,1-.39.279,1.114,1.114,0,0,1-.613,0h-.39a3.956,3.956,0,0,1-1.894-.724h-.557l-.557-.334a3.843,3.843,0,0,1-1.059-.557,4.523,4.523,0,0,0-.5-.557l-.5-.39s0-.279-.446-.334h.557a4.29,4.29,0,0,0-2.34.557c-.724.446-1.337,1.114-2.117,1.5l-.669.39a1.784,1.784,0,0,1-.5,0c-.39,0-.613.5-1.059.5h-.5l-.947.39h-.78s0-.5-.334-.613a.836.836,0,0,0-.78-.446H449.51a7.084,7.084,0,0,0-.724.613,5.57,5.57,0,0,0-.724.5,12.587,12.587,0,0,1-1.449.891,3.956,3.956,0,0,1-1.337.334H444.05a1.952,1.952,0,0,0-.613,0H442.6a3.733,3.733,0,0,1-1.337,0,8.074,8.074,0,0,0-1.226-.5h-1.671a15.046,15.046,0,0,1-2.4-.613,8.084,8.084,0,0,1-1.226-.5l-.669-.446a2.135,2.135,0,0,0-.613-.279h0c0-.334-.724-.557-1.059-.891a3.79,3.79,0,0,0-.669-.669l-.557-.39a17.436,17.436,0,0,0-2.674-1.393l-1.059-.446h-5.014a3.4,3.4,0,0,1-.947-.39c-.39,0-.613-.557-.947-.836l-1-.724a7.576,7.576,0,0,0-2.173-.947,6.129,6.129,0,0,0-2.006-.39h-.5a1.226,1.226,0,0,0-.613,0h-1.059a4.234,4.234,0,0,1-2.006-.78,2.005,2.005,0,0,1-.39-.557,2.841,2.841,0,0,1-.724-1.839,5.571,5.571,0,0,0-1.393-2.674A2.507,2.507,0,0,0,407,157.2a1.281,1.281,0,0,0-.836,0,1.45,1.45,0,0,0-1.114.891,1.226,1.226,0,0,0,0,1.17v1.059h-2.117a3.231,3.231,0,0,1-1.616-.334,1.839,1.839,0,0,0-.669,0h-.5a12.551,12.551,0,0,0-1.17.669,2.006,2.006,0,0,0-.78,1,6.415,6.415,0,0,0-.557,1.281,9.531,9.531,0,0,0,0,2.173,2.954,2.954,0,0,0,0,.669,3.183,3.183,0,0,0,0,.724,3.9,3.9,0,0,0,.334,1.059,2.34,2.34,0,0,1,0,1.393c0,.446,0,.613-.557.891l-.5.5c0,.279-.39.334-.613.5a7.349,7.349,0,0,1-1.114.669,1.65,1.65,0,0,0-1,.334,10.694,10.694,0,0,1-1.393.669l-1,.39a1.393,1.393,0,0,1-.669,0h-3.064a3.566,3.566,0,0,1-2.117-.557l-1.114-.613c-.279,0-.724-.446-1.059-.446h0c-.669-.669-1.337-1.337-1.95-2.061a8.523,8.523,0,0,1-1.393-2.507,4.456,4.456,0,0,1-.39-1.114,6.69,6.69,0,0,1,0-1.5v-2.284a1.9,1.9,0,0,0,0-1.226l-.39-.5a2.9,2.9,0,0,0-.613-.39h-.5a1.5,1.5,0,0,0-.669,0,1.616,1.616,0,0,0-.613.334l-.613.5a4.792,4.792,0,0,0-1.114.724l-.334.334a5.857,5.857,0,0,0-.613.39l-1.059.891-.669.5s-.334.446-.613.446v5.237a5.577,5.577,0,0,0,0,.947,4.181,4.181,0,0,0,0,.836s0,.39,0,.669a6.746,6.746,0,0,0,0,1.059,6.8,6.8,0,0,1,0,1.839c0,.39-.557.78-.836,1.059a3.176,3.176,0,0,1-1.226.613,3.064,3.064,0,0,1-1,0h-.78a5.962,5.962,0,0,1-1.393,0,7.411,7.411,0,0,1-1.56-.557,8.079,8.079,0,0,0-1.448-.613,3.12,3.12,0,0,1-1.393-.78l-.891-1.114a17.5,17.5,0,0,1-1.393-2.451,23.84,23.84,0,0,1-1.114-2.451,4.457,4.457,0,0,1-.39-1.114,5.571,5.571,0,0,1,0-1.337h0a1.729,1.729,0,0,0,0-.669l-.334-.613a7.459,7.459,0,0,0-.39-1c0-.39-.39-.836-.613-1.226a7.9,7.9,0,0,0-.613-1c-.223-.279-.669-.836-1-1.17l-1.337-.78a12.588,12.588,0,0,0-1.114-.724l-.5-.5a.682.682,0,0,1-.613-.5h0c-.613,0-1-.613-1.393-1.059a3.455,3.455,0,0,1-.78-1.393,7.315,7.315,0,0,0-.557-1.783,3.845,3.845,0,0,1,0-1.114v-.836a10.254,10.254,0,0,0,0-1.839,1.783,1.783,0,0,0-.947-1.059,2.2,2.2,0,0,0-.724-.5h-.446a3.064,3.064,0,0,0-1.337.836,3.4,3.4,0,0,0-.724,1.226,8.18,8.18,0,0,0,0,1.17,1.727,1.727,0,0,1-1.337,1.839h0a8.755,8.755,0,0,1-1.281,0,4.736,4.736,0,0,1-1.226-.5,25.738,25.738,0,0,1-2.674-1.56H338.2a4.182,4.182,0,0,0-.724-.334h-.557a1.393,1.393,0,0,0-.613,0h-1.17a4.179,4.179,0,0,1-1.17,0h-1.616l-.947.279a9.64,9.64,0,0,0-1.671.891c-.39,0-.669.5-1,.724a2.953,2.953,0,0,0-.557.334l-.5.39a2.228,2.228,0,0,1-.836.557h-3.566a5.241,5.241,0,0,0-.891,0h-.891a10.809,10.809,0,0,0-3.008-.279h-4.234a4.514,4.514,0,0,1-1.5-.279,13.094,13.094,0,0,1-2.061-.78l-.891-.557a6.073,6.073,0,0,1-.947-.724,3.621,3.621,0,0,1-1.17-1.56,4.9,4.9,0,0,1,0-.836,5.571,5.571,0,0,1,0-.947v-1.393h0c0-.39.446-.78.613-1.17a4.179,4.179,0,0,1,0-.891,13.146,13.146,0,0,0,.557-2.117,25.126,25.126,0,0,0,.669-4.011,4.122,4.122,0,0,0-.279-2.006,8.413,8.413,0,0,0-1.393-2.061,5.571,5.571,0,0,0-2.117-1.727l-.947-.279H302.6l-.947.446a2.843,2.843,0,0,0-.836.39,2.173,2.173,0,0,0-.557.891,5.962,5.962,0,0,0-.334,1.671,2.9,2.9,0,0,1-.891,1.616,4.791,4.791,0,0,1-2.006,1.114h-4.958a3.565,3.565,0,0,1-1.5-.39l-1.337-.39-1.449-.613a5.572,5.572,0,0,1-2.006-1.281,13.925,13.925,0,0,1-1.281-1.281l-1.337-2.451a4.123,4.123,0,0,1-.669-.724.834.834,0,0,0-.5-.724c-.5-.223-1.56-1.894-2.4-2.786h0a4.116,4.116,0,0,1-.78,0h-.836a12.423,12.423,0,0,0-2.006,0h-3.008a2.4,2.4,0,0,1-1.56-.724,11.14,11.14,0,0,1-1.393-1.393l-1.281-1.337-.724-.557s-.39-.5-.669-.5h0a5.07,5.07,0,0,0-3.677-2.9h-3.12c-.613,0-1.226,0-1.616-.724a8.412,8.412,0,0,1-1-1.449,9.746,9.746,0,0,1-.669-1.783,5.568,5.568,0,0,1,0-1.337h0v-1.337a7.866,7.866,0,0,0,0-1.114,6.074,6.074,0,0,0,0-1.393,6.915,6.915,0,0,0-.557-1.114,4.347,4.347,0,0,0-1.393-.891h-.39a1.616,1.616,0,0,1-.669-.39,1.2,1.2,0,0,1-1.114-1.114,8.957,8.957,0,0,1,0-1.226,4.962,4.962,0,0,0,0-1.226,1.56,1.56,0,0,0-.78-.891,2.116,2.116,0,0,0-.724-.5h-.557a1.5,1.5,0,0,1-.446-1.226v-2.34a10.25,10.25,0,0,0,0-2.284v-.724L249.5,96.53l-1.114-.836a10.2,10.2,0,0,0-1.727-1.337l-.446-.39h-.5a8.289,8.289,0,0,0-.724-.724,4.9,4.9,0,0,0-.947-.669,1.966,1.966,0,0,0-.78-.39h0a6.242,6.242,0,0,1-.446.947,2.506,2.506,0,0,1-.557.78,1.727,1.727,0,0,1-1.17.39h-1.337a5.963,5.963,0,0,1-1.059-.39,2.841,2.841,0,0,0-1.616-.557h0a.892.892,0,0,1-.947-.446,1.727,1.727,0,0,0-.724,0h-.39l-.891.279a2.674,2.674,0,0,0-1.114-.836c-.613.5-1.059,1.393-1.95,1.393h-1.727c-.724,0-.947.891-1.226,1.448a6.07,6.07,0,0,1-.446.836,5.575,5.575,0,0,1-.334.891,3.454,3.454,0,0,1-1.337,1.337,3.287,3.287,0,0,1-1.838.724h0a1.056,1.056,0,0,0-.724.279,1.393,1.393,0,0,0-.5,0,7.189,7.189,0,0,1-1.448.446c-1,0-.947.947-1,1.783a7.354,7.354,0,0,0,0,1.17,1.281,1.281,0,0,1-.947.446h0a4.793,4.793,0,0,1-1.281,0H217.8l-.669-.279-.836-1c-.334-.279-.669-.39-.947-.669s-.724-.446-1.059-.724l-1-.836-1.337-1c-.334,0-.613-.669-.947-.947a1.894,1.894,0,0,0-1.059-.39,3.621,3.621,0,0,0-1.114,0h0a.657.657,0,0,0-.334-.557c-.334-.167-.334,0-.446-.446l-.446-.836a3.956,3.956,0,0,1,0-1.616c0-.613,0-1.17,0-1.783a.891.891,0,0,0-.39-.836,2.953,2.953,0,0,0-.78-.669,18.048,18.048,0,0,1-1.95-1.5,8.526,8.526,0,0,0-.891-.613l-.446-.334a2.564,2.564,0,0,1-.39-.39c-.279-.279-.669-.446-.891-.724a.836.836,0,0,1,0-.39l-.446-.5-.724-1c0-.279-.613-.613-.724-.947h0a3.287,3.287,0,0,0-1.95-1.226,2.619,2.619,0,0,0-.891,0h0a1.226,1.226,0,0,1-.947-.334s-.613-.334-.39-.78.39-.446.39-.78a1.894,1.894,0,0,0,0-.78s0,0,0-.334l-.334-.5a3.733,3.733,0,0,0-1.839-1.17l-.836-.446a2.619,2.619,0,0,0-.891,0h-.334c-.279,0-.5.446-.836.613a1.949,1.949,0,0,1-.78.334h0a3.287,3.287,0,0,1-1.059-.613l-.39-.5a2.786,2.786,0,0,1-.446-.39,9.357,9.357,0,0,0-1,1.17,3.175,3.175,0,0,1-1.17.724,3.789,3.789,0,0,1-1.616.334h-1.783c-.836,0-1-.947-1.226-1.671a1.894,1.894,0,0,0-.613-1,6.576,6.576,0,0,0-1-.724l-.947-.613-.891-.39a17.385,17.385,0,0,0-2.4-.836c-.724,0-1.281-.78-2.061-.78h0a3.6,3.6,0,0,0-1.839.334l-2.173.334h-2.451a.922.922,0,0,1-.78-.446l-.836-.5-1.226-.669-1.114-.446a3.9,3.9,0,0,1-1.226-1.114c0-.39-.891-.669,0-1.059a5.069,5.069,0,0,1,1.17-.279c.947-.334,1.671-1,1.393-2.006a2.563,2.563,0,0,0-.836-1.281l-1.114-.557a12.421,12.421,0,0,0-2.4-.891h-1.17a4.4,4.4,0,0,1-1.226-.334,2.953,2.953,0,0,1-.78-.669l-.557-.39-.669-.557-.891-1.337a.886.886,0,0,0-.39-.669,3.065,3.065,0,0,1-.334-.446,11.913,11.913,0,0,0-.724-1.059,1.12,1.12,0,0,0-.39-.836l-.334-.5a.7.7,0,0,0-.279-.557l-.446-.39-.669-.5h-.724a2.786,2.786,0,0,1-.724,0h-.557a2.284,2.284,0,0,0-.891,0,5.572,5.572,0,0,1-1.56,0,1.95,1.95,0,0,1-1.393-.557c-.39-.334-.669-.836-1.114-1.226a8.3,8.3,0,0,1-.836-1.114,2.34,2.34,0,0,0-1.5-1h-1.5a9.137,9.137,0,0,0-2.34.669h-1.727a5.068,5.068,0,0,0-.724-.446,7.856,7.856,0,0,0-2.4-1.281H132.23a4.011,4.011,0,0,0-1.393-.39h0c-1.059,0-1.059-1.671-.947-2.451a6.739,6.739,0,0,1,.446-1.393,3.454,3.454,0,0,0,0-1.5,1.223,1.223,0,0,0-.39-1.114c-.39-.39-.836-.5-1.226-.836a26.8,26.8,0,0,1-2.451-2.618,21.282,21.282,0,0,1-2.006-2.563,5.181,5.181,0,0,0-2.006-2.228,5.572,5.572,0,0,0-1.393-.39,8.134,8.134,0,0,0-1.226,0h-4.123a7.913,7.913,0,0,0-1.226,0,3.286,3.286,0,0,1-1.059.279H112.9a3.454,3.454,0,0,1-1.449-.334,9.749,9.749,0,0,0-1.783-.669l-1.337-.446h-.836l-.669-.446a15.929,15.929,0,0,0-1.56-.39l-1.226-.279a4.792,4.792,0,0,1-1.56,0,11.143,11.143,0,0,0-1.281-.39,20.889,20.889,0,0,0-2.618,0ZM154.014,212.02Zm0,0Z" transform="translate(1572.943 1076.963)" fill="none" stroke="#5f266d" stroke-width="2"/>
    <g id="explore" transform="translate(1663.341 1117.365)">
      <path id="Path_131" data-name="Path 131" d="M295.928,210.315v63.569a8.745,8.745,0,0,1-8.744,8.744H62.411C51.516,274.076,46.06,260.261,46.06,246.48c0-13.815,5.456-27.6,16.351-36.165Z" transform="translate(-39.065 156.897)" fill="#44c7b6"/>
      <path id="Path_132" data-name="Path 132" d="M316.928,177.709v54.825a8.745,8.745,0,0,1-8.744,8.744H83.411c-10.9-8.552-16.351-22.367-16.351-36.148,0-13.815,5.456-27.6,16.351-36.165H308.184A8.744,8.744,0,0,1,316.928,177.709Z" transform="translate(-23.34 125.935)" fill="#ff4a73"/>
      <path id="Path_133" data-name="Path 133" d="M184.736,183.43h-75.2l9.409-27.953a8.542,8.542,0,0,1,8.1-5.818h40.332a8.541,8.541,0,0,1,8.109,5.855Z" transform="translate(8.467 111.478)" fill="#b76c6c"/>
      <circle id="Ellipse_99" data-name="Ellipse 99" cx="81.956" cy="81.956" r="81.956" transform="translate(73.649 44.703)" fill="#5fcdff"/>
      <path id="Path_134" data-name="Path 134" d="M218.606,107.849a81.964,81.964,0,0,1-81.949,81.966,81.113,81.113,0,0,1-13.116-1.049,81.967,81.967,0,0,0,0-161.816A81.11,81.11,0,0,1,136.657,25.9,81.949,81.949,0,0,1,218.606,107.849Z" transform="translate(18.953 18.808)" fill="#30b6ff"/>
      <path id="Path_135" data-name="Path 135" d="M179.254,188.765a81.111,81.111,0,0,1-13.116,1.049,81.957,81.957,0,1,1,0-163.915,81.111,81.111,0,0,1,13.116,1.049,81.964,81.964,0,0,0,0,161.816Z" transform="translate(-10.527 18.808)" fill="#73d7f9"/>
      <path id="Path_136" data-name="Path 136" d="M153.279,149.66a8.541,8.541,0,0,0-8.1,5.824l-9.409,27.944H109.542l9.409-27.944a8.541,8.541,0,0,1,8.1-5.824Z" transform="translate(8.47 111.479)" fill="#c98585"/>
      <path id="Path_137" data-name="Path 137" d="M88.644,282.633H62.412c-10.9-8.552-16.351-22.367-16.351-36.148,0-13.815,5.456-27.6,16.351-36.165H88.644c-10.9,8.569-16.351,22.35-16.351,36.165C72.295,260.266,77.749,274.081,88.644,282.633Z" transform="translate(-39.064 156.901)" fill="#4bdbc3"/>
      <path id="Path_138" data-name="Path 138" d="M109.644,241.283H83.412c-10.9-8.552-16.351-22.367-16.351-36.148,0-13.816,5.456-27.6,16.351-36.165h26.232c-10.9,8.569-16.351,22.35-16.351,36.165C93.295,218.916,98.749,232.731,109.644,241.283Z" transform="translate(-23.339 125.938)" fill="#f973a3"/>
      <path id="Path_139" data-name="Path 139" d="M203.917,210.32v63.569a8.747,8.747,0,0,1-8.744,8.744H168.941a8.747,8.747,0,0,0,8.744-8.744V210.32Z" transform="translate(52.948 156.901)" fill="#3bb2a0"/>
      <path id="Path_140" data-name="Path 140" d="M224.917,177.714v54.825a8.747,8.747,0,0,1-8.744,8.744H189.941a8.747,8.747,0,0,0,8.744-8.744V177.714a8.736,8.736,0,0,0-8.744-8.744h26.232A8.736,8.736,0,0,1,224.917,177.714Z" transform="translate(68.673 125.938)" fill="#ea2a6a"/>
      <path id="Path_141" data-name="Path 141" d="M342.643,303.979A15.756,15.756,0,0,0,326.9,288.239H240.312l-7.661-23.11a15.51,15.51,0,0,0-14.749-10.65H204.66V240.336a115.065,115.065,0,0,0,73.969-33.023c70.888-69.555,23.791-187.775-73.967-193.662V7.33a7,7,0,0,0-13.99,0V38.342c-76.188,5.962-109.938,99.674-54.508,152.82.308.359.011.163.972.927a88.623,88.623,0,0,0,53.538,23.555v38.836h-13.1a15.528,15.528,0,0,0-14.727,10.58l-7.8,23.18H102.133a7.014,7.014,0,0,0-4.325,1.5c-20.216,15.9-25.025,47.938-11.009,70.818H65.408a7.014,7.014,0,0,0-4.325,1.5c-11.913,9.367-19.023,24.943-19.023,41.663s7.112,32.3,19.029,41.649a7,7,0,0,0,4.32,1.493H290.179a15.756,15.756,0,0,0,15.739-15.739V374.541H326.9A15.756,15.756,0,0,0,342.643,358.8Zm-219.6-169.99h25.232a107.455,107.455,0,0,0,8.223,33.425,88.891,88.891,0,0,0-14.608,9.594,74.663,74.663,0,0,1-18.847-43.019ZM141.887,76.98a88.94,88.94,0,0,0,13.321,8.9A107.934,107.934,0,0,0,148.025,120H123.042A74.672,74.672,0,0,1,141.887,76.98ZM272.289,120H247.315a107.919,107.919,0,0,0-7.184-34.126,88.8,88.8,0,0,0,13.312-8.9A74.684,74.684,0,0,1,272.289,120Zm-67.628,71.809V171.635a74.767,74.767,0,0,1,14.686,2.872A81.364,81.364,0,0,1,204.661,191.807Zm0-34.194V133.989h28.331a93.311,93.311,0,0,1-7.035,27.937,88.724,88.724,0,0,0-21.3-4.313Zm0-37.615V96.374a88.625,88.625,0,0,0,22.689-4.8A94.026,94.026,0,0,1,233.3,120H204.661Zm0-37.646V58.222A82.187,82.187,0,0,1,221.32,78.856,74.758,74.758,0,0,1,204.661,82.352Zm-13.99,0a74.755,74.755,0,0,1-16.652-3.5,82.272,82.272,0,0,1,16.652-20.629Zm0,14.022V120H162.038a94.024,94.024,0,0,1,5.951-28.416,88.7,88.7,0,0,0,22.682,4.792Zm0,37.615v23.626a88.813,88.813,0,0,0-21.29,4.309,93.269,93.269,0,0,1-7.032-27.935Zm0,37.646V191.8a81.2,81.2,0,0,1-14.683-17.3A74.834,74.834,0,0,1,190.671,171.635Zm41.807,8.246a74.783,74.783,0,0,1,10.556,6.733A74.708,74.708,0,0,1,217.1,199.385,96.521,96.521,0,0,0,232.478,179.88Zm20.963-2.87a88.692,88.692,0,0,0-14.6-9.594,107.381,107.381,0,0,0,8.226-33.428h25.223A74.666,74.666,0,0,1,253.441,177.011ZM234.19,73.179a98.685,98.685,0,0,0-11.848-16.955,74.853,74.853,0,0,1,20.692,11.149A74.8,74.8,0,0,1,234.19,73.179Zm-73.042.005a74.934,74.934,0,0,1-8.852-5.809A74.84,74.84,0,0,1,173,56.221a98.628,98.628,0,0,0-11.855,16.963Zm1.707,106.694a96.441,96.441,0,0,0,15.384,19.508A74.71,74.71,0,0,1,152.3,186.612,74.973,74.973,0,0,1,162.855,179.879Zm135.875-52.885c0,52.593-41.6,95.766-94.068,99.321V215.643c23.3-1.824,45.717-14.247,54.484-24.457,55.577-53.247,21.51-146.9-54.484-152.845V27.672c52.471,3.555,94.068,46.73,94.068,99.321ZM176.1,269.524a1.547,1.547,0,0,1,1.467-1.055H217.9a1.544,1.544,0,0,1,1.469,1.06l6.2,18.709H169.8ZM291.928,396.709H173.989a7,7,0,1,0,0,13.99H291.926v20.417a1.749,1.749,0,0,1-1.749,1.749H67.967c-7.5-6.85-11.915-17.563-11.915-29.152s4.417-22.306,11.918-29.17H291.928ZM326.9,360.552H104.691c-15.886-14.511-15.886-43.779,0-58.324H326.9a1.749,1.749,0,0,1,1.749,1.749V324.4H203.273a7,7,0,1,0,0,13.99h125.38V358.8A1.749,1.749,0,0,1,326.9,360.552Z" transform="translate(-42.06 -0.335)" fill="#5f266d"/>
    </g>
  </g>
</svg>
