<svg id="Layer_1" data-name="Layer 1" xmlns="http://www.w3.org/2000/svg" viewBox="0 0 211.74 429.85"><defs><style>.cls-1{fill:#f5c99d;}.cls-2{fill:#d8a982;}.cls-3{fill:#070707;}.cls-4{fill:#b8db70;}.cls-5{fill:#97c157;}.cls-6{fill:#fd9c28;}.cls-7{fill:#e65924;}.cls-8{fill:#fff;}.cls-9{fill:#45391d;}.cls-10{fill:#002822;}.cls-11{fill:#1e3865;}</style></defs><title>teacher</title><path class="cls-1" d="M276.65,329.21c-8.09,50.38-14.76,104.67-11.87,133.26,2.37,8,9.73,10.67,16.23,11.71l-4.47,4.87-12.58.72-16.78-6.62a67.26,67.26,0,0,0,1.74-9.1c.89-6.72-2.22-22.08-2.22-22.08s-8.19-53.05-3.53-65a48.86,48.86,0,0,0,2.73-11.46h0c1.37-10.71.6-23.59-.3-36.12-1-13.6-2.12-26.77-.83-36.29a686.91,686.91,0,0,0,5.94-81h32.94s9.33,26.52,5,49.25C284.94,280.75,280.62,304.51,276.65,329.21Z" transform="translate(-179.26 -52.77)"/><path class="cls-2" d="M245.9,365.53c1.37-10.71.6-23.59-.3-36.12l24.32-9.83,6.73,9.63C275.62,330.48,257.53,351.82,245.9,365.53Z" transform="translate(-179.26 -52.77)"/><path class="cls-1" d="M340.53,178.89a61.87,61.87,0,0,1,6.4-5.9c2.67-2,10.17-3.9,10.93-.63.34,1.46-2.29,4.68-4.19,5.83s-2.19,2.61-4.21,4.66-6.94,2.16-6.94,2.16Z" transform="translate(-179.26 -52.77)"/><path class="cls-3" d="M230.93,146.3c-1.57-3,34.24-13.93,34.8,15.94,0,0,67.08-1.65,35-39-11.08-12.94-9.94-23.64-9.61-33.6s-6.91-38.92-31.74-36c0,0-6.5-2.64-14.61,1.57C226.36,64.73,185,157.31,230.93,146.3Z" transform="translate(-179.26 -52.77)"/><path class="cls-4" d="M277.45,181.84a65.43,65.43,0,0,0,6.67,10.1c5.19,6.5,13.19,14,23.24,15.49a25,25,0,0,0,13.8-2.24h0c12.19-5.42,21.37-17.87,21.37-17.87a10,10,0,0,0-1.37-9.85s-24.63,5.55-27,4.37-16-40.6-19.29-45.55-14.36-7.53-14.36-7.53Z" transform="translate(-179.26 -52.77)"/><path class="cls-5" d="M284.12,191.94c5.19,6.5,13.19,14,23.24,15.49a25,25,0,0,0,13.8-2.24c-.48.06-12.66,1.57-17.52-7.12-4.95-8.87-10.31-22.94-17.67-18.25C282.8,181.85,282.94,186.88,284.12,191.94Z" transform="translate(-179.26 -52.77)"/><path class="cls-1" d="M208,482H196.64c-3.3,0-7.06-2.53-8-8.48s-7.7-9.21-9.16-14.08c-1-3.35,1.37-5.74,3.62-7.58,1-.85,2-1.58,2.68-2.22,2.31-2.33,4.49-12.4,4.49-12.4l12,6.3s-5.64,9.59-2.39,20.37c1.52,5,2.88,9.69,6.25,12.59a11.65,11.65,0,0,0,2.74,1.74C214.1,480.64,208,482,208,482Z" transform="translate(-179.26 -52.77)"/><path class="cls-4" d="M216.68,162.24a168,168,0,0,0,0,19.52c.42,7.06,7.55,16.51,8.57,18.85,2.54,5.87,5.4,6.82,5.4,6.82l22.18,5.43,7.8,1.91,24.58-7.34s11.2-31.26,6.7-48.85a135.06,135.06,0,0,0-11.36-29.82s-28.27-7.35-50.17-.95Z" transform="translate(-179.26 -52.77)"/><path class="cls-1" d="M232.06,211s-18.57,24.92-20.3,41.77,14.69,63.47,11,79.89c-2.74,12.19-17.33,21.86-21.36,52.59-1.4,10.67-6.45,32-11.11,52l10.29,10.1c24.51-55.86,49.85-91,51.35-103.38,1.06-8.74,6-54.72,26.13-88.67,4.83-8.15-3-40.56-3-40.56Z" transform="translate(-179.26 -52.77)"/><path class="cls-6" d="M289.78,268.41c-2.73,33.27-5.94,61.3-5.94,61.3a82,82,0,0,1-37.47,11.79h0a72.65,72.65,0,0,1-33.25-5.75s-4.52-80.36-1.65-93.16,15.61-30.41,15.61-30.41l57.29,2.21S292.52,235.13,289.78,268.41Z" transform="translate(-179.26 -52.77)"/><path class="cls-7" d="M285.59,206.32s-4.89,3.87-14.6,4.07c-11.59.23-40.33-3-40.33-3a23.76,23.76,0,0,0-1.23,7.33s35.1,8.86,55.44,1.3C284.87,216.06,287.49,211.12,285.59,206.32Z" transform="translate(-179.26 -52.77)"/><path class="cls-8" d="M268.48,214.39c0-3.3,2.38-6,5.3-6s5.29,2.69,5.29,6-2.37,6-5.29,6S268.48,217.69,268.48,214.39Zm1.76,0c0,2.34,1.59,4.24,3.54,4.24s3.54-1.9,3.54-4.24-1.59-4.24-3.54-4.24S270.24,212.05,270.24,214.39Z" transform="translate(-179.26 -52.77)"/><rect class="cls-9" x="208.44" y="171.59" width="47.68" height="65.27" transform="translate(94.09 458) rotate(-138.95)"/><path class="cls-1" d="M238.77,213.29s13.17,1.54,13.13,4.67-3.28,9.56-4.91,9.84-10.72-8.69-10.72-8.69Z" transform="translate(-179.26 -52.77)"/><path class="cls-4" d="M234.36,127.1s-17.59,1.23-24.33,17.62-19.54,43.92-19.54,48.55,7.15,18.9,45.53,27.11c0,0,4-4.18,3.73-7.48,0,0-24-20.58-23.9-23,.12-4.55,3.93-10.56,25-31.6C246.54,152.6,234.36,127.1,234.36,127.1Z" transform="translate(-179.26 -52.77)"/><path class="cls-10" d="M338,225.84,390.71,70.9c.24-.71.57-1.38-.14-1.64l-.63-.23c-.72-.26-.93.2-1.2.92L332.55,222.67a3,3,0,0,0,1.58,3.71l1.3.58A1.89,1.89,0,0,0,338,225.84Z" transform="translate(-179.26 -52.77)"/><path class="cls-1" d="M345.15,178.13a25.39,25.39,0,0,0,4.93-.74c2-.52,4.56-1.45,4.56-1.45,1.5,1.09-3.73,4.08-5.06,6.13-1.09,1.66-2.33,2.14-5.33,2.79Z" transform="translate(-179.26 -52.77)"/><path class="cls-11" d="M260.89,481.59c7.33-.9,5.4,1,15.67,1s13.79-3.36,14.27-4.83c.44-1.31-4.52-2.37-9.82-3.61l-.19.13a28.24,28.24,0,0,1-14.93,2.78c-6.9-.63-13.95-3.46-18.71-3.93a17.33,17.33,0,0,0-.45,4.77C247.1,482.51,253.56,482.5,260.89,481.59Z" transform="translate(-179.26 -52.77)"/><path class="cls-11" d="M208,482H196.64c-3.3,0-7.06-2.53-8-8.48s-7.7-9.21-9.16-14.08c-1-3.35,1.37-5.74,3.62-7.58,1.25,1.87,3.94,6.53,6.59,15.13,3.08,10.05,10.48,10.34,16.41,9.51a11.65,11.65,0,0,0,2.74,1.74C214.1,480.64,208,482,208,482Z" transform="translate(-179.26 -52.77)"/><path class="cls-1" d="M237.13,126.25a10.61,10.61,0,0,0,7.74-6.74,53.88,53.88,0,0,0,2.63-17.92l1.11.22,18.72,3.71s-.43,5.89-.44,11.44v.13a10.76,10.76,0,0,0,7.77,10.41c2.36.69-11.27,18.64-12.83,18.29C258.58,145.06,236,126.5,237.13,126.25Z" transform="translate(-179.26 -52.77)"/><path class="cls-2" d="M267.33,105.52s-.43,5.89-.44,11.44c-10.47-.3-16-9.85-18.28-15.15Z" transform="translate(-179.26 -52.77)"/><path class="cls-1" d="M270.83,110.77s-24.79.41-24.8-15S242.8,70,258.62,69.05s18.91,5,20.16,10.12S277.27,110.27,270.83,110.77Z" transform="translate(-179.26 -52.77)"/><path class="cls-3" d="M269.91,68.67s-6.79,18.11-17.2,20.79-14.93-.11-14.93-.11a29.52,29.52,0,0,0,9.65-17.42S264.79,60.05,269.91,68.67Z" transform="translate(-179.26 -52.77)"/><path class="cls-3" d="M268.23,70.14s5,1.88,7.1,5.55a24.91,24.91,0,0,1,3.35,14.17s5.11-12.31-.63-19.27C272,63.21,268.23,70.14,268.23,70.14Z" transform="translate(-179.26 -52.77)"/><path class="cls-8" d="M266,101.61s.42,1.82,4.95,1.54c0,0,3.8-.24,3.68-2.24A12.21,12.21,0,0,0,266,101.61Z" transform="translate(-179.26 -52.77)"/><path class="cls-5" d="M261.83,145.79s-16.77-17.91-17.4-25.22c0,0-4.27,1.18-9.3,6.07,0,0,4,10.1,8.84,13.43a31,31,0,0,0,6.26-1.63,53.08,53.08,0,0,1-3.14,4.63S254.69,147.38,261.83,145.79Z" transform="translate(-179.26 -52.77)"/><path class="cls-5" d="M267.7,121.25s6.61,12.08-5.87,24.54c0,0,7.83-1.5,11.86-7,0,0-1.25-3-2.31-3.66,0,0,2.35-.93,3.83.44,0,0,.89-6.48,0-8.45S269.64,121.19,267.7,121.25Z" transform="translate(-179.26 -52.77)"/><path class="cls-10" d="M260.58,145.79a1.25,1.25,0,1,1,1.25,1.25A1.25,1.25,0,0,1,260.58,145.79Z" transform="translate(-179.26 -52.77)"/><path class="cls-10" d="M267.24,163.49a1.25,1.25,0,1,1,1.24,1.25A1.25,1.25,0,0,1,267.24,163.49Z" transform="translate(-179.26 -52.77)"/><path class="cls-10" d="M268.48,184.25a1.25,1.25,0,1,1,1.25,1.25A1.25,1.25,0,0,1,268.48,184.25Z" transform="translate(-179.26 -52.77)"/><path class="cls-7" d="M289.78,268.41c-2.73,33.27-5.94,61.3-5.94,61.3a82,82,0,0,1-37.47,11.79,60.85,60.85,0,0,0,22.12-15.78C277.87,314.73,289.78,268.41,289.78,268.41Z" transform="translate(-179.26 -52.77)"/></svg>